solid OpenSCAD_Model
  facet normal -0 0 1
    outer loop
      vertex -10 85.2 -10
      vertex 9.8 -10 -10
      vertex 9.8 85.2 -10
    endloop
  endfacet
  facet normal 0 0 1
    outer loop
      vertex 9.8 -10 -10
      vertex -10 85.2 -10
      vertex -10 -10 -10
    endloop
  endfacet
  facet normal 0 -1 0
    outer loop
      vertex -10 -10 -14.8
      vertex 9.8 -10 -10
      vertex -10 -10 -10
    endloop
  endfacet
  facet normal 0 -1 -0
    outer loop
      vertex 9.8 -10 -10
      vertex -10 -10 -14.8
      vertex 9.8 -10 -14.8
    endloop
  endfacet
  facet normal 0 0 -1
    outer loop
      vertex -10 -10 -14.8
      vertex 9.8 90 -14.8
      vertex 9.8 -10 -14.8
    endloop
  endfacet
  facet normal -0 0 -1
    outer loop
      vertex 9.8 90 -14.8
      vertex -10 -10 -14.8
      vertex -10 90 -14.8
    endloop
  endfacet
  facet normal 0 1 -0
    outer loop
      vertex 9.8 90 -14.8
      vertex -10 90 8
      vertex 9.8 90 8
    endloop
  endfacet
  facet normal 0 1 0
    outer loop
      vertex -10 90 8
      vertex 9.8 90 -14.8
      vertex -10 90 -14.8
    endloop
  endfacet
  facet normal -1 0 0
    outer loop
      vertex -10 90 -14.8
      vertex -10 85.2 -10
      vertex -10 90 8
    endloop
  endfacet
  facet normal -1 0 0
    outer loop
      vertex -10 -10 -14.8
      vertex -10 85.2 -10
      vertex -10 90 -14.8
    endloop
  endfacet
  facet normal -1 -0 0
    outer loop
      vertex -10 85.2 -10
      vertex -10 -10 -14.8
      vertex -10 -10 -10
    endloop
  endfacet
  facet normal -1 -0 0
    outer loop
      vertex -10 90 8
      vertex -10 85.2 -10
      vertex -10 85.2 8
    endloop
  endfacet
  facet normal 1 0 0
    outer loop
      vertex 9.8 85.2 -10
      vertex 9.8 90 8
      vertex 9.8 85.2 8
    endloop
  endfacet
  facet normal 1 0 0
    outer loop
      vertex 9.8 90 8
      vertex 9.8 85.2 -10
      vertex 9.8 90 -14.8
    endloop
  endfacet
  facet normal 1 0 0
    outer loop
      vertex 9.8 -10 -14.8
      vertex 9.8 85.2 -10
      vertex 9.8 -10 -10
    endloop
  endfacet
  facet normal 1 0 0
    outer loop
      vertex 9.8 85.2 -10
      vertex 9.8 -10 -14.8
      vertex 9.8 90 -14.8
    endloop
  endfacet
  facet normal -0 0 1
    outer loop
      vertex -10 90 8
      vertex 9.8 85.2 8
      vertex 9.8 90 8
    endloop
  endfacet
  facet normal 0 0 1
    outer loop
      vertex 9.8 85.2 8
      vertex -10 90 8
      vertex -10 85.2 8
    endloop
  endfacet
  facet normal 0 -1 0
    outer loop
      vertex -10 85.2 -10
      vertex 9.8 85.2 8
      vertex -10 85.2 8
    endloop
  endfacet
  facet normal 0 -1 -0
    outer loop
      vertex 9.8 85.2 8
      vertex -10 85.2 -10
      vertex 9.8 85.2 -10
    endloop
  endfacet
endsolid OpenSCAD_Model
