solid OpenSCAD_Model
  facet normal 1 -0 0
    outer loop
      vertex 17.5 -15 10
      vertex 17.5 22 0
      vertex 17.5 22 10
    endloop
  endfacet
  facet normal 1 0 0
    outer loop
      vertex 17.5 22 0
      vertex 17.5 -15 10
      vertex 17.5 -15 0
    endloop
  endfacet
  facet normal -0.385221 0.922824 0
    outer loop
      vertex 7.5 13.9564 0
      vertex -4.25779 9.04827 10
      vertex 7.5 13.9564 10
    endloop
  endfacet
  facet normal -0.385221 0.922824 0
    outer loop
      vertex -4.25779 9.04827 10
      vertex 7.5 13.9564 0
      vertex -4.25779 9.04827 0
    endloop
  endfacet
  facet normal -0.684547 -0.728969 0
    outer loop
      vertex -7.28969 -6.84547 0
      vertex -6.37424 -7.70513 10
      vertex -7.28969 -6.84547 10
    endloop
  endfacet
  facet normal -0.684547 -0.728969 -0
    outer loop
      vertex -6.37424 -7.70513 10
      vertex -7.28969 -6.84547 0
      vertex -6.37424 -7.70513 0
    endloop
  endfacet
  facet normal -0.385221 -0.922824 0
    outer loop
      vertex -4.25779 -9.04827 0
      vertex 10 -15 10
      vertex -4.25779 -9.04827 10
    endloop
  endfacet
  facet normal -0.385221 -0.922824 -0
    outer loop
      vertex 10 -15 10
      vertex -4.25779 -9.04827 0
      vertex 10 -15 0
    endloop
  endfacet
  facet normal 0 -1 0
    outer loop
      vertex 10 -15 0
      vertex 17.5 -15 10
      vertex 10 -15 10
    endloop
  endfacet
  facet normal 0 -1 -0
    outer loop
      vertex 17.5 -15 10
      vertex 10 -15 0
      vertex 17.5 -15 0
    endloop
  endfacet
  facet normal -0.951057 0.309017 0
    outer loop
      vertex -9.68583 2.4869 0
      vertex -9.29776 3.68124 10
      vertex -9.29776 3.68124 0
    endloop
  endfacet
  facet normal -0.951057 0.309017 0
    outer loop
      vertex -9.29776 3.68124 10
      vertex -9.68583 2.4869 0
      vertex -9.68583 2.4869 10
    endloop
  endfacet
  facet normal -0.951057 -0.309017 0
    outer loop
      vertex -9.29776 -3.68124 0
      vertex -9.68583 -2.4869 10
      vertex -9.68583 -2.4869 0
    endloop
  endfacet
  facet normal -0.951057 -0.309017 0
    outer loop
      vertex -9.68583 -2.4869 10
      vertex -9.29776 -3.68124 0
      vertex -9.29776 -3.68124 10
    endloop
  endfacet
  facet normal 0 0 1
    outer loop
      vertex 9.5 11 10
      vertex 7.44086 0.939999 10
      vertex 7.5 0 10
    endloop
  endfacet
  facet normal 0 0 1
    outer loop
      vertex 9.5 11 10
      vertex 7.26437 1.86517 10
      vertex 7.44086 0.939999 10
    endloop
  endfacet
  facet normal 0 0 1
    outer loop
      vertex 9.5 11 10
      vertex 6.97332 2.76093 10
      vertex 7.26437 1.86517 10
    endloop
  endfacet
  facet normal 0 0 1
    outer loop
      vertex 9.5 11 10
      vertex 6.5723 3.61315 10
      vertex 6.97332 2.76093 10
    endloop
  endfacet
  facet normal 0 0 1
    outer loop
      vertex 9.5 11 10
      vertex 6.06763 4.40839 10
      vertex 6.5723 3.61315 10
    endloop
  endfacet
  facet normal 0 0 1
    outer loop
      vertex 9.5 11 10
      vertex 5.46726 5.1341 10
      vertex 6.06763 4.40839 10
    endloop
  endfacet
  facet normal 0 0 1
    outer loop
      vertex 9.5 11 10
      vertex 4.78068 5.77885 10
      vertex 5.46726 5.1341 10
    endloop
  endfacet
  facet normal 0 0 1
    outer loop
      vertex 9.5 11 10
      vertex 4.0187 6.33246 10
      vertex 4.78068 5.77885 10
    endloop
  endfacet
  facet normal 0 0 1
    outer loop
      vertex 9.5 11 10
      vertex 3.19334 6.7862 10
      vertex 4.0187 6.33246 10
    endloop
  endfacet
  facet normal 0 0 1
    outer loop
      vertex 7.5 13.9564 10
      vertex 2.31763 7.13292 10
      vertex 3.19334 6.7862 10
    endloop
  endfacet
  facet normal 0 0 1
    outer loop
      vertex 7.5 13.9564 10
      vertex 1.40536 7.36715 10
      vertex 2.31763 7.13292 10
    endloop
  endfacet
  facet normal 0 0 1
    outer loop
      vertex 7.5 13.9564 10
      vertex 0.470928 7.4852 10
      vertex 1.40536 7.36715 10
    endloop
  endfacet
  facet normal -0 0 1
    outer loop
      vertex -4.25779 9.04827 10
      vertex 0.470928 7.4852 10
      vertex 7.5 13.9564 10
    endloop
  endfacet
  facet normal 0 0 1
    outer loop
      vertex 0.470928 7.4852 10
      vertex -4.25779 9.04827 10
      vertex -0.470928 7.4852 10
    endloop
  endfacet
  facet normal 0 0 1
    outer loop
      vertex -0.470928 7.4852 10
      vertex -4.25779 9.04827 10
      vertex -1.40536 7.36715 10
    endloop
  endfacet
  facet normal 0 0 1
    outer loop
      vertex -1.40536 7.36715 10
      vertex -4.25779 9.04827 10
      vertex -2.31763 7.13292 10
    endloop
  endfacet
  facet normal 0 0 1
    outer loop
      vertex -2.31763 7.13292 10
      vertex -4.25779 9.04827 10
      vertex -3.19334 6.7862 10
    endloop
  endfacet
  facet normal 0 0 1
    outer loop
      vertex -3.19334 6.7862 10
      vertex -4.25779 9.04827 10
      vertex -4.0187 6.33246 10
    endloop
  endfacet
  facet normal -0 0 1
    outer loop
      vertex -5.35827 8.44328 10
      vertex -4.0187 6.33246 10
      vertex -4.25779 9.04827 10
    endloop
  endfacet
  facet normal 0 0 1
    outer loop
      vertex -4.0187 6.33246 10
      vertex -5.35827 8.44328 10
      vertex -4.78068 5.77885 10
    endloop
  endfacet
  facet normal -0 0 1
    outer loop
      vertex -6.37424 7.70513 10
      vertex -4.78068 5.77885 10
      vertex -5.35827 8.44328 10
    endloop
  endfacet
  facet normal 0 0 1
    outer loop
      vertex -4.78068 5.77885 10
      vertex -6.37424 7.70513 10
      vertex -5.46726 5.1341 10
    endloop
  endfacet
  facet normal -0 0 1
    outer loop
      vertex -7.28969 6.84547 10
      vertex -5.46726 5.1341 10
      vertex -6.37424 7.70513 10
    endloop
  endfacet
  facet normal 0 0 1
    outer loop
      vertex -5.46726 5.1341 10
      vertex -7.28969 6.84547 10
      vertex -6.06763 4.40839 10
    endloop
  endfacet
  facet normal -0 0 1
    outer loop
      vertex -8.09017 5.87785 10
      vertex -6.06763 4.40839 10
      vertex -7.28969 6.84547 10
    endloop
  endfacet
  facet normal 0 0 1
    outer loop
      vertex -6.06763 4.40839 10
      vertex -8.09017 5.87785 10
      vertex -6.5723 3.61315 10
    endloop
  endfacet
  facet normal -0 0 1
    outer loop
      vertex -8.76307 4.81754 10
      vertex -6.5723 3.61315 10
      vertex -8.09017 5.87785 10
    endloop
  endfacet
  facet normal 0 0 1
    outer loop
      vertex -6.5723 3.61315 10
      vertex -8.76307 4.81754 10
      vertex -6.97332 2.76093 10
    endloop
  endfacet
  facet normal -0 0 1
    outer loop
      vertex -9.29776 3.68124 10
      vertex -6.97332 2.76093 10
      vertex -8.76307 4.81754 10
    endloop
  endfacet
  facet normal 0 0 1
    outer loop
      vertex -6.97332 2.76093 10
      vertex -9.29776 3.68124 10
      vertex -7.26437 1.86517 10
    endloop
  endfacet
  facet normal 0 0 1
    outer loop
      vertex 17.5 22 10
      vertex 15.5 11 10
      vertex 17.5 -15 10
    endloop
  endfacet
  facet normal 0 0 1
    outer loop
      vertex 15 16 10
      vertex 17.5 22 10
      vertex 15 20 10
    endloop
  endfacet
  facet normal -0 0 1
    outer loop
      vertex 7.5 22 10
      vertex 15 20 10
      vertex 17.5 22 10
    endloop
  endfacet
  facet normal 0 0 1
    outer loop
      vertex 9 20 10
      vertex 7.5 22 10
      vertex 9 16 10
    endloop
  endfacet
  facet normal 0 0 1
    outer loop
      vertex 15 20 10
      vertex 7.5 22 10
      vertex 9 20 10
    endloop
  endfacet
  facet normal -0 0 1
    outer loop
      vertex 15.5 -11 10
      vertex 17.5 -15 10
      vertex 15.5 11 10
    endloop
  endfacet
  facet normal 0 0 1
    outer loop
      vertex 15.5 -11 10
      vertex 10 -15 10
      vertex 17.5 -15 10
    endloop
  endfacet
  facet normal -0 0 1
    outer loop
      vertex 9.5 -11 10
      vertex 10 -15 10
      vertex 15.5 -11 10
    endloop
  endfacet
  facet normal 0 0 1
    outer loop
      vertex 9 16 10
      vertex 7.5 13.9564 10
      vertex 9.5 11 10
    endloop
  endfacet
  facet normal 0 0 1
    outer loop
      vertex 3.19334 6.7862 10
      vertex 9.5 11 10
      vertex 7.5 13.9564 10
    endloop
  endfacet
  facet normal 0 0 1
    outer loop
      vertex 9.5 11 10
      vertex 7.5 0 10
      vertex 9.5 -11 10
    endloop
  endfacet
  facet normal -0 0 1
    outer loop
      vertex 7.44086 -0.939999 10
      vertex 9.5 -11 10
      vertex 7.5 0 10
    endloop
  endfacet
  facet normal -0 0 1
    outer loop
      vertex 7.26437 -1.86517 10
      vertex 9.5 -11 10
      vertex 7.44086 -0.939999 10
    endloop
  endfacet
  facet normal -0 0 1
    outer loop
      vertex 6.97332 -2.76093 10
      vertex 9.5 -11 10
      vertex 7.26437 -1.86517 10
    endloop
  endfacet
  facet normal -0 0 1
    outer loop
      vertex 6.5723 -3.61315 10
      vertex 9.5 -11 10
      vertex 6.97332 -2.76093 10
    endloop
  endfacet
  facet normal -0 0 1
    outer loop
      vertex 6.06763 -4.40839 10
      vertex 9.5 -11 10
      vertex 6.5723 -3.61315 10
    endloop
  endfacet
  facet normal -0 0 1
    outer loop
      vertex 5.46726 -5.1341 10
      vertex 9.5 -11 10
      vertex 6.06763 -4.40839 10
    endloop
  endfacet
  facet normal -0 0 1
    outer loop
      vertex 4.78068 -5.77885 10
      vertex 9.5 -11 10
      vertex 5.46726 -5.1341 10
    endloop
  endfacet
  facet normal -0 0 1
    outer loop
      vertex 4.0187 -6.33246 10
      vertex 9.5 -11 10
      vertex 4.78068 -5.77885 10
    endloop
  endfacet
  facet normal -0 0 1
    outer loop
      vertex 3.19334 -6.7862 10
      vertex 9.5 -11 10
      vertex 4.0187 -6.33246 10
    endloop
  endfacet
  facet normal -0 0 1
    outer loop
      vertex 2.31763 -7.13292 10
      vertex 9.5 -11 10
      vertex 3.19334 -6.7862 10
    endloop
  endfacet
  facet normal -0 0 1
    outer loop
      vertex 1.40536 -7.36715 10
      vertex 9.5 -11 10
      vertex 2.31763 -7.13292 10
    endloop
  endfacet
  facet normal 0 0 1
    outer loop
      vertex 9.5 -11 10
      vertex 1.40536 -7.36715 10
      vertex 10 -15 10
    endloop
  endfacet
  facet normal -0 0 1
    outer loop
      vertex 0.470928 -7.4852 10
      vertex 10 -15 10
      vertex 1.40536 -7.36715 10
    endloop
  endfacet
  facet normal 0 0 1
    outer loop
      vertex -4.25779 -9.04827 10
      vertex 0.470928 -7.4852 10
      vertex -0.470928 -7.4852 10
    endloop
  endfacet
  facet normal 0 0 1
    outer loop
      vertex -4.25779 -9.04827 10
      vertex -0.470928 -7.4852 10
      vertex -1.40536 -7.36715 10
    endloop
  endfacet
  facet normal 0 0 1
    outer loop
      vertex -4.25779 -9.04827 10
      vertex -1.40536 -7.36715 10
      vertex -2.31763 -7.13292 10
    endloop
  endfacet
  facet normal 0 0 1
    outer loop
      vertex -4.25779 -9.04827 10
      vertex -2.31763 -7.13292 10
      vertex -3.19334 -6.7862 10
    endloop
  endfacet
  facet normal 0 0 1
    outer loop
      vertex -4.25779 -9.04827 10
      vertex -3.19334 -6.7862 10
      vertex -4.0187 -6.33246 10
    endloop
  endfacet
  facet normal 0 0 1
    outer loop
      vertex 0.470928 -7.4852 10
      vertex -4.25779 -9.04827 10
      vertex 10 -15 10
    endloop
  endfacet
  facet normal 0 0 1
    outer loop
      vertex -5.35827 -8.44328 10
      vertex -4.0187 -6.33246 10
      vertex -4.78068 -5.77885 10
    endloop
  endfacet
  facet normal 0 0 1
    outer loop
      vertex -4.0187 -6.33246 10
      vertex -5.35827 -8.44328 10
      vertex -4.25779 -9.04827 10
    endloop
  endfacet
  facet normal 0 0 1
    outer loop
      vertex -6.37424 -7.70513 10
      vertex -4.78068 -5.77885 10
      vertex -5.46726 -5.1341 10
    endloop
  endfacet
  facet normal 0 0 1
    outer loop
      vertex -7.28969 -6.84547 10
      vertex -5.46726 -5.1341 10
      vertex -6.06763 -4.40839 10
    endloop
  endfacet
  facet normal 0 0 1
    outer loop
      vertex -4.78068 -5.77885 10
      vertex -6.37424 -7.70513 10
      vertex -5.35827 -8.44328 10
    endloop
  endfacet
  facet normal 0 0 1
    outer loop
      vertex -8.09017 -5.87785 10
      vertex -6.06763 -4.40839 10
      vertex -6.5723 -3.61315 10
    endloop
  endfacet
  facet normal 0 0 1
    outer loop
      vertex -8.76307 -4.81754 10
      vertex -6.5723 -3.61315 10
      vertex -6.97332 -2.76093 10
    endloop
  endfacet
  facet normal 0 0 1
    outer loop
      vertex -9.29776 -3.68124 10
      vertex -6.97332 -2.76093 10
      vertex -7.26437 -1.86517 10
    endloop
  endfacet
  facet normal 0 0 1
    outer loop
      vertex -5.46726 -5.1341 10
      vertex -7.28969 -6.84547 10
      vertex -6.37424 -7.70513 10
    endloop
  endfacet
  facet normal 0 0 1
    outer loop
      vertex -9.68583 -2.4869 10
      vertex -7.26437 -1.86517 10
      vertex -7.44086 -0.939999 10
    endloop
  endfacet
  facet normal 0 0 1
    outer loop
      vertex -9.92115 -1.25333 10
      vertex -7.44086 -0.939999 10
      vertex -7.5 0 10
    endloop
  endfacet
  facet normal -0 0 1
    outer loop
      vertex -9.68583 2.4869 10
      vertex -7.26437 1.86517 10
      vertex -9.29776 3.68124 10
    endloop
  endfacet
  facet normal 0 0 1
    outer loop
      vertex -6.06763 -4.40839 10
      vertex -8.09017 -5.87785 10
      vertex -7.28969 -6.84547 10
    endloop
  endfacet
  facet normal 0 0 1
    outer loop
      vertex -7.26437 1.86517 10
      vertex -9.68583 2.4869 10
      vertex -7.44086 0.939999 10
    endloop
  endfacet
  facet normal 0 0 1
    outer loop
      vertex -6.5723 -3.61315 10
      vertex -8.76307 -4.81754 10
      vertex -8.09017 -5.87785 10
    endloop
  endfacet
  facet normal -0 0 1
    outer loop
      vertex -9.92115 1.25333 10
      vertex -7.44086 0.939999 10
      vertex -9.68583 2.4869 10
    endloop
  endfacet
  facet normal 0 0 1
    outer loop
      vertex -6.97332 -2.76093 10
      vertex -9.29776 -3.68124 10
      vertex -8.76307 -4.81754 10
    endloop
  endfacet
  facet normal 0 0 1
    outer loop
      vertex -7.44086 0.939999 10
      vertex -9.92115 1.25333 10
      vertex -7.5 0 10
    endloop
  endfacet
  facet normal 0 0 1
    outer loop
      vertex -7.26437 -1.86517 10
      vertex -9.68583 -2.4869 10
      vertex -9.29776 -3.68124 10
    endloop
  endfacet
  facet normal 0 0 1
    outer loop
      vertex -10 0 10
      vertex -7.5 0 10
      vertex -9.92115 1.25333 10
    endloop
  endfacet
  facet normal 0 0 1
    outer loop
      vertex -7.44086 -0.939999 10
      vertex -9.92115 -1.25333 10
      vertex -9.68583 -2.4869 10
    endloop
  endfacet
  facet normal 0 0 1
    outer loop
      vertex -7.5 0 10
      vertex -10 0 10
      vertex -9.92115 -1.25333 10
    endloop
  endfacet
  facet normal 0 0 1
    outer loop
      vertex 17.5 22 10
      vertex 15 16 10
      vertex 15.5 11 10
    endloop
  endfacet
  facet normal 0 0 1
    outer loop
      vertex 15 16 10
      vertex 9.5 11 10
      vertex 15.5 11 10
    endloop
  endfacet
  facet normal 0 0 1
    outer loop
      vertex 7.5 13.9564 10
      vertex 9 16 10
      vertex 7.5 22 10
    endloop
  endfacet
  facet normal -0 0 1
    outer loop
      vertex 9 16 10
      vertex 9.5 11 10
      vertex 15 16 10
    endloop
  endfacet
  facet normal -0.904827 0.425779 0
    outer loop
      vertex -9.29776 3.68124 0
      vertex -8.76307 4.81754 10
      vertex -8.76307 4.81754 0
    endloop
  endfacet
  facet normal -0.904827 0.425779 0
    outer loop
      vertex -8.76307 4.81754 10
      vertex -9.29776 3.68124 0
      vertex -9.29776 3.68124 10
    endloop
  endfacet
  facet normal -0.844328 0.535826 0
    outer loop
      vertex -8.76307 4.81754 0
      vertex -8.09017 5.87785 10
      vertex -8.09017 5.87785 0
    endloop
  endfacet
  facet normal -0.844328 0.535826 0
    outer loop
      vertex -8.09017 5.87785 10
      vertex -8.76307 4.81754 0
      vertex -8.76307 4.81754 10
    endloop
  endfacet
  facet normal -0.982287 0.187381 0
    outer loop
      vertex -9.92115 1.25333 0
      vertex -9.68583 2.4869 10
      vertex -9.68583 2.4869 0
    endloop
  endfacet
  facet normal -0.982287 0.187381 0
    outer loop
      vertex -9.68583 2.4869 10
      vertex -9.92115 1.25333 0
      vertex -9.92115 1.25333 10
    endloop
  endfacet
  facet normal -0.998027 0.062791 0
    outer loop
      vertex -10 0 0
      vertex -9.92115 1.25333 10
      vertex -9.92115 1.25333 0
    endloop
  endfacet
  facet normal -0.998027 0.062791 0
    outer loop
      vertex -9.92115 1.25333 10
      vertex -10 0 0
      vertex -10 0 10
    endloop
  endfacet
  facet normal 0 0 -1
    outer loop
      vertex 7.26437 1.86517 0
      vertex 9.5 11 0
      vertex 7.44086 0.939999 0
    endloop
  endfacet
  facet normal 0 0 -1
    outer loop
      vertex 6.97332 2.76093 0
      vertex 9.5 11 0
      vertex 7.26437 1.86517 0
    endloop
  endfacet
  facet normal 0 0 -1
    outer loop
      vertex 6.5723 3.61315 0
      vertex 9.5 11 0
      vertex 6.97332 2.76093 0
    endloop
  endfacet
  facet normal 0 0 -1
    outer loop
      vertex 6.06763 4.40839 0
      vertex 9.5 11 0
      vertex 6.5723 3.61315 0
    endloop
  endfacet
  facet normal 0 0 -1
    outer loop
      vertex 5.46726 5.1341 0
      vertex 9.5 11 0
      vertex 6.06763 4.40839 0
    endloop
  endfacet
  facet normal 0 0 -1
    outer loop
      vertex 4.78068 5.77885 0
      vertex 9.5 11 0
      vertex 5.46726 5.1341 0
    endloop
  endfacet
  facet normal 0 0 -1
    outer loop
      vertex 4.0187 6.33246 0
      vertex 9.5 11 0
      vertex 4.78068 5.77885 0
    endloop
  endfacet
  facet normal 0 0 -1
    outer loop
      vertex 3.19334 6.7862 0
      vertex 9.5 11 0
      vertex 4.0187 6.33246 0
    endloop
  endfacet
  facet normal -0 0 -1
    outer loop
      vertex 9.5 11 0
      vertex 3.19334 6.7862 0
      vertex 7.5 13.9564 0
    endloop
  endfacet
  facet normal 0 0 -1
    outer loop
      vertex 2.31763 7.13292 0
      vertex 7.5 13.9564 0
      vertex 3.19334 6.7862 0
    endloop
  endfacet
  facet normal 0 0 -1
    outer loop
      vertex 1.40536 7.36715 0
      vertex 7.5 13.9564 0
      vertex 2.31763 7.13292 0
    endloop
  endfacet
  facet normal 0 0 -1
    outer loop
      vertex 0.470928 7.4852 0
      vertex 7.5 13.9564 0
      vertex 1.40536 7.36715 0
    endloop
  endfacet
  facet normal 0 0 -1
    outer loop
      vertex -4.25779 9.04827 0
      vertex 0.470928 7.4852 0
      vertex -0.470928 7.4852 0
    endloop
  endfacet
  facet normal 0 0 -1
    outer loop
      vertex -4.25779 9.04827 0
      vertex -0.470928 7.4852 0
      vertex -1.40536 7.36715 0
    endloop
  endfacet
  facet normal 0 0 -1
    outer loop
      vertex -4.25779 9.04827 0
      vertex -1.40536 7.36715 0
      vertex -2.31763 7.13292 0
    endloop
  endfacet
  facet normal 0 0 -1
    outer loop
      vertex -4.25779 9.04827 0
      vertex -2.31763 7.13292 0
      vertex -3.19334 6.7862 0
    endloop
  endfacet
  facet normal 0 0 -1
    outer loop
      vertex -4.25779 9.04827 0
      vertex -3.19334 6.7862 0
      vertex -4.0187 6.33246 0
    endloop
  endfacet
  facet normal 0 0 -1
    outer loop
      vertex 0.470928 7.4852 0
      vertex -4.25779 9.04827 0
      vertex 7.5 13.9564 0
    endloop
  endfacet
  facet normal 0 0 -1
    outer loop
      vertex -5.35827 8.44328 0
      vertex -4.0187 6.33246 0
      vertex -4.78068 5.77885 0
    endloop
  endfacet
  facet normal 0 0 -1
    outer loop
      vertex -4.0187 6.33246 0
      vertex -5.35827 8.44328 0
      vertex -4.25779 9.04827 0
    endloop
  endfacet
  facet normal 0 0 -1
    outer loop
      vertex -6.37424 7.70513 0
      vertex -4.78068 5.77885 0
      vertex -5.46726 5.1341 0
    endloop
  endfacet
  facet normal 0 0 -1
    outer loop
      vertex -7.28969 6.84547 0
      vertex -5.46726 5.1341 0
      vertex -6.06763 4.40839 0
    endloop
  endfacet
  facet normal 0 0 -1
    outer loop
      vertex -4.78068 5.77885 0
      vertex -6.37424 7.70513 0
      vertex -5.35827 8.44328 0
    endloop
  endfacet
  facet normal 0 0 -1
    outer loop
      vertex -8.09017 5.87785 0
      vertex -6.06763 4.40839 0
      vertex -6.5723 3.61315 0
    endloop
  endfacet
  facet normal 0 0 -1
    outer loop
      vertex -8.76307 4.81754 0
      vertex -6.5723 3.61315 0
      vertex -6.97332 2.76093 0
    endloop
  endfacet
  facet normal 0 0 -1
    outer loop
      vertex -9.29776 3.68124 0
      vertex -6.97332 2.76093 0
      vertex -7.26437 1.86517 0
    endloop
  endfacet
  facet normal 0 0 -1
    outer loop
      vertex -5.46726 5.1341 0
      vertex -7.28969 6.84547 0
      vertex -6.37424 7.70513 0
    endloop
  endfacet
  facet normal 0 0 -1
    outer loop
      vertex -9.68583 2.4869 0
      vertex -7.26437 1.86517 0
      vertex -7.44086 0.939999 0
    endloop
  endfacet
  facet normal 0 0 -1
    outer loop
      vertex -9.92115 1.25333 0
      vertex -7.44086 0.939999 0
      vertex -7.5 0 0
    endloop
  endfacet
  facet normal 0 0 -1
    outer loop
      vertex -9.68583 -2.4869 0
      vertex -7.26437 -1.86517 0
      vertex -9.29776 -3.68124 0
    endloop
  endfacet
  facet normal 0 0 -1
    outer loop
      vertex -6.06763 4.40839 0
      vertex -8.09017 5.87785 0
      vertex -7.28969 6.84547 0
    endloop
  endfacet
  facet normal -0 0 -1
    outer loop
      vertex -7.26437 -1.86517 0
      vertex -9.68583 -2.4869 0
      vertex -7.44086 -0.939999 0
    endloop
  endfacet
  facet normal 0 0 -1
    outer loop
      vertex -6.5723 3.61315 0
      vertex -8.76307 4.81754 0
      vertex -8.09017 5.87785 0
    endloop
  endfacet
  facet normal 0 0 -1
    outer loop
      vertex -9.92115 -1.25333 0
      vertex -7.44086 -0.939999 0
      vertex -9.68583 -2.4869 0
    endloop
  endfacet
  facet normal 0 0 -1
    outer loop
      vertex -6.97332 2.76093 0
      vertex -9.29776 3.68124 0
      vertex -8.76307 4.81754 0
    endloop
  endfacet
  facet normal -0 0 -1
    outer loop
      vertex -7.44086 -0.939999 0
      vertex -9.92115 -1.25333 0
      vertex -7.5 0 0
    endloop
  endfacet
  facet normal 0 0 -1
    outer loop
      vertex -7.26437 1.86517 0
      vertex -9.68583 2.4869 0
      vertex -9.29776 3.68124 0
    endloop
  endfacet
  facet normal 0 0 -1
    outer loop
      vertex -10 0 0
      vertex -7.5 0 0
      vertex -9.92115 -1.25333 0
    endloop
  endfacet
  facet normal 0 0 -1
    outer loop
      vertex -7.44086 0.939999 0
      vertex -9.92115 1.25333 0
      vertex -9.68583 2.4869 0
    endloop
  endfacet
  facet normal 0 0 -1
    outer loop
      vertex -7.5 0 0
      vertex -10 0 0
      vertex -9.92115 1.25333 0
    endloop
  endfacet
  facet normal 0 0 -1
    outer loop
      vertex 15.5 11 0
      vertex 17.5 -15 0
      vertex 15.5 -11 0
    endloop
  endfacet
  facet normal 0 0 -1
    outer loop
      vertex 10 -15 0
      vertex 15.5 -11 0
      vertex 17.5 -15 0
    endloop
  endfacet
  facet normal 0 0 -1
    outer loop
      vertex 10 -15 0
      vertex 9.5 -11 0
      vertex 15.5 -11 0
    endloop
  endfacet
  facet normal 0 0 -1
    outer loop
      vertex 9.5 -11 0
      vertex 7.5 0 0
      vertex 9.5 11 0
    endloop
  endfacet
  facet normal 0 0 -1
    outer loop
      vertex 1.40536 -7.36715 0
      vertex 9.5 -11 0
      vertex 10 -15 0
    endloop
  endfacet
  facet normal 0 0 -1
    outer loop
      vertex 9.5 -11 0
      vertex 7.44086 -0.939999 0
      vertex 7.5 0 0
    endloop
  endfacet
  facet normal 0 0 -1
    outer loop
      vertex 9.5 -11 0
      vertex 7.26437 -1.86517 0
      vertex 7.44086 -0.939999 0
    endloop
  endfacet
  facet normal 0 0 -1
    outer loop
      vertex 9.5 -11 0
      vertex 6.97332 -2.76093 0
      vertex 7.26437 -1.86517 0
    endloop
  endfacet
  facet normal 0 0 -1
    outer loop
      vertex 9.5 -11 0
      vertex 6.5723 -3.61315 0
      vertex 6.97332 -2.76093 0
    endloop
  endfacet
  facet normal 0 0 -1
    outer loop
      vertex 9.5 -11 0
      vertex 6.06763 -4.40839 0
      vertex 6.5723 -3.61315 0
    endloop
  endfacet
  facet normal 0 0 -1
    outer loop
      vertex 9.5 -11 0
      vertex 5.46726 -5.1341 0
      vertex 6.06763 -4.40839 0
    endloop
  endfacet
  facet normal 0 0 -1
    outer loop
      vertex 9.5 -11 0
      vertex 4.78068 -5.77885 0
      vertex 5.46726 -5.1341 0
    endloop
  endfacet
  facet normal 0 0 -1
    outer loop
      vertex 9.5 -11 0
      vertex 4.0187 -6.33246 0
      vertex 4.78068 -5.77885 0
    endloop
  endfacet
  facet normal 0 0 -1
    outer loop
      vertex 9.5 -11 0
      vertex 3.19334 -6.7862 0
      vertex 4.0187 -6.33246 0
    endloop
  endfacet
  facet normal 0 0 -1
    outer loop
      vertex 9.5 -11 0
      vertex 2.31763 -7.13292 0
      vertex 3.19334 -6.7862 0
    endloop
  endfacet
  facet normal 0 0 -1
    outer loop
      vertex 9.5 -11 0
      vertex 1.40536 -7.36715 0
      vertex 2.31763 -7.13292 0
    endloop
  endfacet
  facet normal 0 0 -1
    outer loop
      vertex 10 -15 0
      vertex 0.470928 -7.4852 0
      vertex 1.40536 -7.36715 0
    endloop
  endfacet
  facet normal 0 0 -1
    outer loop
      vertex -4.25779 -9.04827 0
      vertex 0.470928 -7.4852 0
      vertex 10 -15 0
    endloop
  endfacet
  facet normal -0 0 -1
    outer loop
      vertex 0.470928 -7.4852 0
      vertex -4.25779 -9.04827 0
      vertex -0.470928 -7.4852 0
    endloop
  endfacet
  facet normal -0 0 -1
    outer loop
      vertex -0.470928 -7.4852 0
      vertex -4.25779 -9.04827 0
      vertex -1.40536 -7.36715 0
    endloop
  endfacet
  facet normal -0 0 -1
    outer loop
      vertex -1.40536 -7.36715 0
      vertex -4.25779 -9.04827 0
      vertex -2.31763 -7.13292 0
    endloop
  endfacet
  facet normal -0 0 -1
    outer loop
      vertex -2.31763 -7.13292 0
      vertex -4.25779 -9.04827 0
      vertex -3.19334 -6.7862 0
    endloop
  endfacet
  facet normal -0 0 -1
    outer loop
      vertex -3.19334 -6.7862 0
      vertex -4.25779 -9.04827 0
      vertex -4.0187 -6.33246 0
    endloop
  endfacet
  facet normal 0 0 -1
    outer loop
      vertex -5.35827 -8.44328 0
      vertex -4.0187 -6.33246 0
      vertex -4.25779 -9.04827 0
    endloop
  endfacet
  facet normal -0 0 -1
    outer loop
      vertex -4.0187 -6.33246 0
      vertex -5.35827 -8.44328 0
      vertex -4.78068 -5.77885 0
    endloop
  endfacet
  facet normal 0 0 -1
    outer loop
      vertex -6.37424 -7.70513 0
      vertex -4.78068 -5.77885 0
      vertex -5.35827 -8.44328 0
    endloop
  endfacet
  facet normal -0 0 -1
    outer loop
      vertex -4.78068 -5.77885 0
      vertex -6.37424 -7.70513 0
      vertex -5.46726 -5.1341 0
    endloop
  endfacet
  facet normal 0 0 -1
    outer loop
      vertex -7.28969 -6.84547 0
      vertex -5.46726 -5.1341 0
      vertex -6.37424 -7.70513 0
    endloop
  endfacet
  facet normal -0 0 -1
    outer loop
      vertex -5.46726 -5.1341 0
      vertex -7.28969 -6.84547 0
      vertex -6.06763 -4.40839 0
    endloop
  endfacet
  facet normal 0 0 -1
    outer loop
      vertex -8.09017 -5.87785 0
      vertex -6.06763 -4.40839 0
      vertex -7.28969 -6.84547 0
    endloop
  endfacet
  facet normal -0 0 -1
    outer loop
      vertex -6.06763 -4.40839 0
      vertex -8.09017 -5.87785 0
      vertex -6.5723 -3.61315 0
    endloop
  endfacet
  facet normal 0 0 -1
    outer loop
      vertex -8.76307 -4.81754 0
      vertex -6.5723 -3.61315 0
      vertex -8.09017 -5.87785 0
    endloop
  endfacet
  facet normal -0 0 -1
    outer loop
      vertex -6.5723 -3.61315 0
      vertex -8.76307 -4.81754 0
      vertex -6.97332 -2.76093 0
    endloop
  endfacet
  facet normal 0 0 -1
    outer loop
      vertex -9.29776 -3.68124 0
      vertex -6.97332 -2.76093 0
      vertex -8.76307 -4.81754 0
    endloop
  endfacet
  facet normal -0 0 -1
    outer loop
      vertex -6.97332 -2.76093 0
      vertex -9.29776 -3.68124 0
      vertex -7.26437 -1.86517 0
    endloop
  endfacet
  facet normal 0 0 -1
    outer loop
      vertex 17.5 -15 0
      vertex 15.5 11 0
      vertex 17.5 22 0
    endloop
  endfacet
  facet normal 0 0 -1
    outer loop
      vertex 7.5 13.9564 0
      vertex 15.5 11 0
      vertex 9.5 11 0
    endloop
  endfacet
  facet normal 0 0 -1
    outer loop
      vertex 7.44086 0.939999 0
      vertex 9.5 11 0
      vertex 7.5 0 0
    endloop
  endfacet
  facet normal 0 0 -1
    outer loop
      vertex 15.5 11 0
      vertex 7.5 13.9564 0
      vertex 17.5 22 0
    endloop
  endfacet
  facet normal -0 0 -1
    outer loop
      vertex 17.5 22 0
      vertex 7.5 13.9564 0
      vertex 7.5 22 0
    endloop
  endfacet
  facet normal -0.770513 0.637424 0
    outer loop
      vertex -8.09017 5.87785 0
      vertex -7.28969 6.84547 10
      vertex -7.28969 6.84547 0
    endloop
  endfacet
  facet normal -0.770513 0.637424 0
    outer loop
      vertex -7.28969 6.84547 10
      vertex -8.09017 5.87785 0
      vertex -8.09017 5.87785 10
    endloop
  endfacet
  facet normal -0.481754 -0.876307 0
    outer loop
      vertex -5.35827 -8.44328 0
      vertex -4.25779 -9.04827 10
      vertex -5.35827 -8.44328 10
    endloop
  endfacet
  facet normal -0.481754 -0.876307 -0
    outer loop
      vertex -4.25779 -9.04827 10
      vertex -5.35827 -8.44328 0
      vertex -4.25779 -9.04827 0
    endloop
  endfacet
  facet normal -0.587786 -0.809017 0
    outer loop
      vertex -6.37424 -7.70513 0
      vertex -5.35827 -8.44328 10
      vertex -6.37424 -7.70513 10
    endloop
  endfacet
  facet normal -0.587786 -0.809017 -0
    outer loop
      vertex -5.35827 -8.44328 10
      vertex -6.37424 -7.70513 0
      vertex -5.35827 -8.44328 0
    endloop
  endfacet
  facet normal -0.998027 -0.062791 0
    outer loop
      vertex -9.92115 -1.25333 0
      vertex -10 0 10
      vertex -10 0 0
    endloop
  endfacet
  facet normal -0.998027 -0.062791 0
    outer loop
      vertex -10 0 10
      vertex -9.92115 -1.25333 0
      vertex -9.92115 -1.25333 10
    endloop
  endfacet
  facet normal -0.587786 0.809017 0
    outer loop
      vertex -5.35827 8.44328 0
      vertex -6.37424 7.70513 10
      vertex -5.35827 8.44328 10
    endloop
  endfacet
  facet normal -0.587786 0.809017 0
    outer loop
      vertex -6.37424 7.70513 10
      vertex -5.35827 8.44328 0
      vertex -6.37424 7.70513 0
    endloop
  endfacet
  facet normal -0.481754 0.876307 0
    outer loop
      vertex -4.25779 9.04827 0
      vertex -5.35827 8.44328 10
      vertex -4.25779 9.04827 10
    endloop
  endfacet
  facet normal -0.481754 0.876307 0
    outer loop
      vertex -5.35827 8.44328 10
      vertex -4.25779 9.04827 0
      vertex -5.35827 8.44328 0
    endloop
  endfacet
  facet normal -0.684547 0.728969 0
    outer loop
      vertex -6.37424 7.70513 0
      vertex -7.28969 6.84547 10
      vertex -6.37424 7.70513 10
    endloop
  endfacet
  facet normal -0.684547 0.728969 0
    outer loop
      vertex -7.28969 6.84547 10
      vertex -6.37424 7.70513 0
      vertex -7.28969 6.84547 0
    endloop
  endfacet
  facet normal -0.770513 -0.637424 0
    outer loop
      vertex -7.28969 -6.84547 0
      vertex -8.09017 -5.87785 10
      vertex -8.09017 -5.87785 0
    endloop
  endfacet
  facet normal -0.770513 -0.637424 0
    outer loop
      vertex -8.09017 -5.87785 10
      vertex -7.28969 -6.84547 0
      vertex -7.28969 -6.84547 10
    endloop
  endfacet
  facet normal -0.982287 -0.187381 0
    outer loop
      vertex -9.68583 -2.4869 0
      vertex -9.92115 -1.25333 10
      vertex -9.92115 -1.25333 0
    endloop
  endfacet
  facet normal -0.982287 -0.187381 0
    outer loop
      vertex -9.92115 -1.25333 10
      vertex -9.68583 -2.4869 0
      vertex -9.68583 -2.4869 10
    endloop
  endfacet
  facet normal -0.844328 -0.535826 0
    outer loop
      vertex -8.09017 -5.87785 0
      vertex -8.76307 -4.81754 10
      vertex -8.76307 -4.81754 0
    endloop
  endfacet
  facet normal -0.844328 -0.535826 0
    outer loop
      vertex -8.76307 -4.81754 10
      vertex -8.09017 -5.87785 0
      vertex -8.09017 -5.87785 10
    endloop
  endfacet
  facet normal -0.904827 -0.425779 0
    outer loop
      vertex -8.76307 -4.81754 0
      vertex -9.29776 -3.68124 10
      vertex -9.29776 -3.68124 0
    endloop
  endfacet
  facet normal -0.904827 -0.425779 0
    outer loop
      vertex -9.29776 -3.68124 10
      vertex -8.76307 -4.81754 0
      vertex -8.76307 -4.81754 10
    endloop
  endfacet
  facet normal 1 -0 0
    outer loop
      vertex 9.5 -11 10
      vertex 9.5 11 0
      vertex 9.5 11 10
    endloop
  endfacet
  facet normal 1 0 0
    outer loop
      vertex 9.5 11 0
      vertex 9.5 -11 10
      vertex 9.5 -11 0
    endloop
  endfacet
  facet normal -1 0 0
    outer loop
      vertex 15.5 -11 0
      vertex 15.5 11 10
      vertex 15.5 11 0
    endloop
  endfacet
  facet normal -1 -0 0
    outer loop
      vertex 15.5 11 10
      vertex 15.5 -11 0
      vertex 15.5 -11 10
    endloop
  endfacet
  facet normal 0 -1 0
    outer loop
      vertex 9.5 11 10
      vertex 12.1942 11 6.49704
      vertex 15.5 11 10
    endloop
  endfacet
  facet normal 0 -1 0
    outer loop
      vertex 9.5 11 10
      vertex 11.8189 11 6.47343
      vertex 12.1942 11 6.49704
    endloop
  endfacet
  facet normal 0 -1 0
    outer loop
      vertex 9.5 11 10
      vertex 11.4613 11 6.35724
      vertex 11.8189 11 6.47343
    endloop
  endfacet
  facet normal 0 -1 0
    outer loop
      vertex 9.5 11 10
      vertex 11.1439 11 6.15577
      vertex 11.4613 11 6.35724
    endloop
  endfacet
  facet normal 0 -1 0
    outer loop
      vertex 9.5 11 10
      vertex 10.8865 11 5.88168
      vertex 11.1439 11 6.15577
    endloop
  endfacet
  facet normal 0 -1 0
    outer loop
      vertex 9.5 11 10
      vertex 10.7053 11 5.55219
      vertex 10.8865 11 5.88168
    endloop
  endfacet
  facet normal 0 -1 0
    outer loop
      vertex 9.5 11 10
      vertex 10.6118 11 5.188
      vertex 10.7053 11 5.55219
    endloop
  endfacet
  facet normal 0 -1 0
    outer loop
      vertex 9.5 11 10
      vertex 10.6118 11 4.812
      vertex 10.6118 11 5.188
    endloop
  endfacet
  facet normal 0 -1 -0
    outer loop
      vertex 11.8189 11 3.52657
      vertex 9.5 11 0
      vertex 12.1942 11 3.50296
    endloop
  endfacet
  facet normal 0 -1 -0
    outer loop
      vertex 11.4613 11 3.64276
      vertex 9.5 11 0
      vertex 11.8189 11 3.52657
    endloop
  endfacet
  facet normal 0 -1 -0
    outer loop
      vertex 11.1439 11 3.84423
      vertex 9.5 11 0
      vertex 11.4613 11 3.64276
    endloop
  endfacet
  facet normal 0 -1 -0
    outer loop
      vertex 10.8865 11 4.11832
      vertex 9.5 11 0
      vertex 11.1439 11 3.84423
    endloop
  endfacet
  facet normal 0 -1 -0
    outer loop
      vertex 10.7053 11 4.44781
      vertex 9.5 11 0
      vertex 10.8865 11 4.11832
    endloop
  endfacet
  facet normal 0 -1 -0
    outer loop
      vertex 10.6118 11 4.812
      vertex 9.5 11 0
      vertex 10.7053 11 4.44781
    endloop
  endfacet
  facet normal 0 -1 0
    outer loop
      vertex 9.5 11 0
      vertex 10.6118 11 4.812
      vertex 9.5 11 10
    endloop
  endfacet
  facet normal 0 -1 0
    outer loop
      vertex 12.5635 11 6.42658
      vertex 15.5 11 10
      vertex 12.1942 11 6.49704
    endloop
  endfacet
  facet normal 0 -1 0
    outer loop
      vertex 12.9037 11 6.26649
      vertex 15.5 11 10
      vertex 12.5635 11 6.42658
    endloop
  endfacet
  facet normal 0 -1 0
    outer loop
      vertex 13.1935 11 6.02682
      vertex 15.5 11 10
      vertex 12.9037 11 6.26649
    endloop
  endfacet
  facet normal 0 -1 0
    outer loop
      vertex 13.4145 11 5.72263
      vertex 15.5 11 10
      vertex 13.1935 11 6.02682
    endloop
  endfacet
  facet normal 0 -1 0
    outer loop
      vertex 13.5529 11 5.37303
      vertex 15.5 11 10
      vertex 13.4145 11 5.72263
    endloop
  endfacet
  facet normal 0 -1 0
    outer loop
      vertex 13.6 11 5
      vertex 15.5 11 10
      vertex 13.5529 11 5.37303
    endloop
  endfacet
  facet normal 0 -1 0
    outer loop
      vertex 15.5 11 0
      vertex 13.6 11 5
      vertex 13.5529 11 4.62696
    endloop
  endfacet
  facet normal 0 -1 0
    outer loop
      vertex 15.5 11 0
      vertex 12.1942 11 3.50296
      vertex 9.5 11 0
    endloop
  endfacet
  facet normal 0 -1 0
    outer loop
      vertex 12.1942 11 3.50296
      vertex 15.5 11 0
      vertex 12.5635 11 3.57341
    endloop
  endfacet
  facet normal 0 -1 0
    outer loop
      vertex 12.5635 11 3.57341
      vertex 15.5 11 0
      vertex 12.9037 11 3.73351
    endloop
  endfacet
  facet normal 0 -1 0
    outer loop
      vertex 13.6 11 5
      vertex 15.5 11 0
      vertex 15.5 11 10
    endloop
  endfacet
  facet normal 0 -1 0
    outer loop
      vertex 13.4145 11 4.27737
      vertex 15.5 11 0
      vertex 13.5529 11 4.62696
    endloop
  endfacet
  facet normal 0 -1 0
    outer loop
      vertex 13.1935 11 3.97318
      vertex 15.5 11 0
      vertex 13.4145 11 4.27737
    endloop
  endfacet
  facet normal 0 -1 0
    outer loop
      vertex 12.9037 11 3.73351
      vertex 15.5 11 0
      vertex 13.1935 11 3.97318
    endloop
  endfacet
  facet normal 0 1 -0
    outer loop
      vertex 15.5 -11 0
      vertex 9.5 -11 10
      vertex 15.5 -11 10
    endloop
  endfacet
  facet normal 0 1 0
    outer loop
      vertex 9.5 -11 10
      vertex 15.5 -11 0
      vertex 9.5 -11 0
    endloop
  endfacet
  facet normal -0.904827 -0.425779 0
    outer loop
      vertex 6.97332 2.76093 0
      vertex 6.5723 3.61315 10
      vertex 6.5723 3.61315 0
    endloop
  endfacet
  facet normal -0.904827 -0.425779 0
    outer loop
      vertex 6.5723 3.61315 10
      vertex 6.97332 2.76093 0
      vertex 6.97332 2.76093 10
    endloop
  endfacet
  facet normal -0.844328 -0.535827 0
    outer loop
      vertex 6.5723 3.61315 0
      vertex 6.06763 4.40839 10
      vertex 6.06763 4.40839 0
    endloop
  endfacet
  facet normal -0.844328 -0.535827 0
    outer loop
      vertex 6.06763 4.40839 10
      vertex 6.5723 3.61315 0
      vertex 6.5723 3.61315 10
    endloop
  endfacet
  facet normal -0.24869 -0.968583 0
    outer loop
      vertex 1.40536 7.36715 0
      vertex 2.31763 7.13292 10
      vertex 1.40536 7.36715 10
    endloop
  endfacet
  facet normal -0.24869 -0.968583 -0
    outer loop
      vertex 2.31763 7.13292 10
      vertex 1.40536 7.36715 0
      vertex 2.31763 7.13292 0
    endloop
  endfacet
  facet normal -0.368124 -0.929777 0
    outer loop
      vertex 2.31763 7.13292 0
      vertex 3.19334 6.7862 10
      vertex 2.31763 7.13292 10
    endloop
  endfacet
  facet normal -0.368124 -0.929777 -0
    outer loop
      vertex 3.19334 6.7862 10
      vertex 2.31763 7.13292 0
      vertex 3.19334 6.7862 0
    endloop
  endfacet
  facet normal 0.368124 -0.929777 0
    outer loop
      vertex -3.19334 6.7862 0
      vertex -2.31763 7.13292 10
      vertex -3.19334 6.7862 10
    endloop
  endfacet
  facet normal 0.368124 -0.929777 0
    outer loop
      vertex -2.31763 7.13292 10
      vertex -3.19334 6.7862 0
      vertex -2.31763 7.13292 0
    endloop
  endfacet
  facet normal 0.904827 -0.425779 0
    outer loop
      vertex -6.97332 2.76093 10
      vertex -6.5723 3.61315 0
      vertex -6.5723 3.61315 10
    endloop
  endfacet
  facet normal 0.904827 -0.425779 0
    outer loop
      vertex -6.5723 3.61315 0
      vertex -6.97332 2.76093 10
      vertex -6.97332 2.76093 0
    endloop
  endfacet
  facet normal -0.982287 0.187382 0
    outer loop
      vertex 7.26437 -1.86517 0
      vertex 7.44086 -0.939999 10
      vertex 7.44086 -0.939999 0
    endloop
  endfacet
  facet normal -0.982287 0.187382 0
    outer loop
      vertex 7.44086 -0.939999 10
      vertex 7.26437 -1.86517 0
      vertex 7.26437 -1.86517 10
    endloop
  endfacet
  facet normal -0.684547 -0.728969 0
    outer loop
      vertex 4.78068 5.77885 0
      vertex 5.46726 5.1341 10
      vertex 4.78068 5.77885 10
    endloop
  endfacet
  facet normal -0.684547 -0.728969 -0
    outer loop
      vertex 5.46726 5.1341 10
      vertex 4.78068 5.77885 0
      vertex 5.46726 5.1341 0
    endloop
  endfacet
  facet normal -0.481754 -0.876307 0
    outer loop
      vertex 3.19334 6.7862 0
      vertex 4.0187 6.33246 10
      vertex 3.19334 6.7862 10
    endloop
  endfacet
  facet normal -0.481754 -0.876307 -0
    outer loop
      vertex 4.0187 6.33246 10
      vertex 3.19334 6.7862 0
      vertex 4.0187 6.33246 0
    endloop
  endfacet
  facet normal 0.998027 -0.0627911 0
    outer loop
      vertex -7.5 0 10
      vertex -7.44086 0.939999 0
      vertex -7.44086 0.939999 10
    endloop
  endfacet
  facet normal 0.998027 -0.0627911 0
    outer loop
      vertex -7.44086 0.939999 0
      vertex -7.5 0 10
      vertex -7.5 0 0
    endloop
  endfacet
  facet normal 0.770513 -0.637424 0
    outer loop
      vertex -6.06763 4.40839 10
      vertex -5.46726 5.1341 0
      vertex -5.46726 5.1341 10
    endloop
  endfacet
  facet normal 0.770513 -0.637424 0
    outer loop
      vertex -5.46726 5.1341 0
      vertex -6.06763 4.40839 10
      vertex -6.06763 4.40839 0
    endloop
  endfacet
  facet normal 0.125333 -0.992115 0
    outer loop
      vertex -1.40536 7.36715 0
      vertex -0.470928 7.4852 10
      vertex -1.40536 7.36715 10
    endloop
  endfacet
  facet normal 0.125333 -0.992115 0
    outer loop
      vertex -0.470928 7.4852 10
      vertex -1.40536 7.36715 0
      vertex -0.470928 7.4852 0
    endloop
  endfacet
  facet normal 0.684547 -0.728969 0
    outer loop
      vertex -5.46726 5.1341 0
      vertex -4.78068 5.77885 10
      vertex -5.46726 5.1341 10
    endloop
  endfacet
  facet normal 0.684547 -0.728969 0
    outer loop
      vertex -4.78068 5.77885 10
      vertex -5.46726 5.1341 0
      vertex -4.78068 5.77885 0
    endloop
  endfacet
  facet normal -0.998027 -0.0627911 0
    outer loop
      vertex 7.5 0 0
      vertex 7.44086 0.939999 10
      vertex 7.44086 0.939999 0
    endloop
  endfacet
  facet normal -0.998027 -0.0627911 0
    outer loop
      vertex 7.44086 0.939999 10
      vertex 7.5 0 0
      vertex 7.5 0 10
    endloop
  endfacet
  facet normal -0.481754 0.876307 0
    outer loop
      vertex 4.0187 -6.33246 0
      vertex 3.19334 -6.7862 10
      vertex 4.0187 -6.33246 10
    endloop
  endfacet
  facet normal -0.481754 0.876307 0
    outer loop
      vertex 3.19334 -6.7862 10
      vertex 4.0187 -6.33246 0
      vertex 3.19334 -6.7862 0
    endloop
  endfacet
  facet normal -0.951057 -0.309017 0
    outer loop
      vertex 7.26437 1.86517 0
      vertex 6.97332 2.76093 10
      vertex 6.97332 2.76093 0
    endloop
  endfacet
  facet normal -0.951057 -0.309017 0
    outer loop
      vertex 6.97332 2.76093 10
      vertex 7.26437 1.86517 0
      vertex 7.26437 1.86517 10
    endloop
  endfacet
  facet normal -0.770513 -0.637424 0
    outer loop
      vertex 6.06763 4.40839 0
      vertex 5.46726 5.1341 10
      vertex 5.46726 5.1341 0
    endloop
  endfacet
  facet normal -0.770513 -0.637424 0
    outer loop
      vertex 5.46726 5.1341 10
      vertex 6.06763 4.40839 0
      vertex 6.06763 4.40839 10
    endloop
  endfacet
  facet normal 0 -1 0
    outer loop
      vertex -0.470928 7.4852 0
      vertex 0.470928 7.4852 10
      vertex -0.470928 7.4852 10
    endloop
  endfacet
  facet normal 0 -1 -0
    outer loop
      vertex 0.470928 7.4852 10
      vertex -0.470928 7.4852 0
      vertex 0.470928 7.4852 0
    endloop
  endfacet
  facet normal -0.587785 -0.809017 0
    outer loop
      vertex 4.0187 6.33246 0
      vertex 4.78068 5.77885 10
      vertex 4.0187 6.33246 10
    endloop
  endfacet
  facet normal -0.587785 -0.809017 -0
    outer loop
      vertex 4.78068 5.77885 10
      vertex 4.0187 6.33246 0
      vertex 4.78068 5.77885 0
    endloop
  endfacet
  facet normal 0.951057 -0.309017 0
    outer loop
      vertex -7.26437 1.86517 10
      vertex -6.97332 2.76093 0
      vertex -6.97332 2.76093 10
    endloop
  endfacet
  facet normal 0.951057 -0.309017 0
    outer loop
      vertex -6.97332 2.76093 0
      vertex -7.26437 1.86517 10
      vertex -7.26437 1.86517 0
    endloop
  endfacet
  facet normal 0.982287 -0.187382 0
    outer loop
      vertex -7.44086 0.939999 10
      vertex -7.26437 1.86517 0
      vertex -7.26437 1.86517 10
    endloop
  endfacet
  facet normal 0.982287 -0.187382 0
    outer loop
      vertex -7.26437 1.86517 0
      vertex -7.44086 0.939999 10
      vertex -7.44086 0.939999 0
    endloop
  endfacet
  facet normal 0.844328 -0.535827 0
    outer loop
      vertex -6.5723 3.61315 10
      vertex -6.06763 4.40839 0
      vertex -6.06763 4.40839 10
    endloop
  endfacet
  facet normal 0.844328 -0.535827 0
    outer loop
      vertex -6.06763 4.40839 0
      vertex -6.5723 3.61315 10
      vertex -6.5723 3.61315 0
    endloop
  endfacet
  facet normal 0.24869 -0.968583 0
    outer loop
      vertex -2.31763 7.13292 0
      vertex -1.40536 7.36715 10
      vertex -2.31763 7.13292 10
    endloop
  endfacet
  facet normal 0.24869 -0.968583 0
    outer loop
      vertex -1.40536 7.36715 10
      vertex -2.31763 7.13292 0
      vertex -1.40536 7.36715 0
    endloop
  endfacet
  facet normal 0.587785 -0.809017 0
    outer loop
      vertex -4.78068 5.77885 0
      vertex -4.0187 6.33246 10
      vertex -4.78068 5.77885 10
    endloop
  endfacet
  facet normal 0.587785 -0.809017 0
    outer loop
      vertex -4.0187 6.33246 10
      vertex -4.78068 5.77885 0
      vertex -4.0187 6.33246 0
    endloop
  endfacet
  facet normal 0.481754 -0.876307 0
    outer loop
      vertex -4.0187 6.33246 0
      vertex -3.19334 6.7862 10
      vertex -4.0187 6.33246 10
    endloop
  endfacet
  facet normal 0.481754 -0.876307 0
    outer loop
      vertex -3.19334 6.7862 10
      vertex -4.0187 6.33246 0
      vertex -3.19334 6.7862 0
    endloop
  endfacet
  facet normal 0 1 -0
    outer loop
      vertex 0.470928 -7.4852 0
      vertex -0.470928 -7.4852 10
      vertex 0.470928 -7.4852 10
    endloop
  endfacet
  facet normal 0 1 0
    outer loop
      vertex -0.470928 -7.4852 10
      vertex 0.470928 -7.4852 0
      vertex -0.470928 -7.4852 0
    endloop
  endfacet
  facet normal 0.998027 0.0627911 0
    outer loop
      vertex -7.44086 -0.939999 10
      vertex -7.5 0 0
      vertex -7.5 0 10
    endloop
  endfacet
  facet normal 0.998027 0.0627911 0
    outer loop
      vertex -7.5 0 0
      vertex -7.44086 -0.939999 10
      vertex -7.44086 -0.939999 0
    endloop
  endfacet
  facet normal 0.844328 0.535827 0
    outer loop
      vertex -6.06763 -4.40839 10
      vertex -6.5723 -3.61315 0
      vertex -6.5723 -3.61315 10
    endloop
  endfacet
  facet normal 0.844328 0.535827 0
    outer loop
      vertex -6.5723 -3.61315 0
      vertex -6.06763 -4.40839 10
      vertex -6.06763 -4.40839 0
    endloop
  endfacet
  facet normal -0.125333 0.992115 0
    outer loop
      vertex 1.40536 -7.36715 0
      vertex 0.470928 -7.4852 10
      vertex 1.40536 -7.36715 10
    endloop
  endfacet
  facet normal -0.125333 0.992115 0
    outer loop
      vertex 0.470928 -7.4852 10
      vertex 1.40536 -7.36715 0
      vertex 0.470928 -7.4852 0
    endloop
  endfacet
  facet normal -0.982287 -0.187382 0
    outer loop
      vertex 7.44086 0.939999 0
      vertex 7.26437 1.86517 10
      vertex 7.26437 1.86517 0
    endloop
  endfacet
  facet normal -0.982287 -0.187382 0
    outer loop
      vertex 7.26437 1.86517 10
      vertex 7.44086 0.939999 0
      vertex 7.44086 0.939999 10
    endloop
  endfacet
  facet normal -0.125333 -0.992115 0
    outer loop
      vertex 0.470928 7.4852 0
      vertex 1.40536 7.36715 10
      vertex 0.470928 7.4852 10
    endloop
  endfacet
  facet normal -0.125333 -0.992115 -0
    outer loop
      vertex 1.40536 7.36715 10
      vertex 0.470928 7.4852 0
      vertex 1.40536 7.36715 0
    endloop
  endfacet
  facet normal -0.998027 0.0627911 0
    outer loop
      vertex 7.44086 -0.939999 0
      vertex 7.5 0 10
      vertex 7.5 0 0
    endloop
  endfacet
  facet normal -0.998027 0.0627911 0
    outer loop
      vertex 7.5 0 10
      vertex 7.44086 -0.939999 0
      vertex 7.44086 -0.939999 10
    endloop
  endfacet
  facet normal -0.904827 0.425779 0
    outer loop
      vertex 6.5723 -3.61315 0
      vertex 6.97332 -2.76093 10
      vertex 6.97332 -2.76093 0
    endloop
  endfacet
  facet normal -0.904827 0.425779 0
    outer loop
      vertex 6.97332 -2.76093 10
      vertex 6.5723 -3.61315 0
      vertex 6.5723 -3.61315 10
    endloop
  endfacet
  facet normal -0.951057 0.309017 0
    outer loop
      vertex 6.97332 -2.76093 0
      vertex 7.26437 -1.86517 10
      vertex 7.26437 -1.86517 0
    endloop
  endfacet
  facet normal -0.951057 0.309017 0
    outer loop
      vertex 7.26437 -1.86517 10
      vertex 6.97332 -2.76093 0
      vertex 6.97332 -2.76093 10
    endloop
  endfacet
  facet normal -0.684547 0.728969 0
    outer loop
      vertex 5.46726 -5.1341 0
      vertex 4.78068 -5.77885 10
      vertex 5.46726 -5.1341 10
    endloop
  endfacet
  facet normal -0.684547 0.728969 0
    outer loop
      vertex 4.78068 -5.77885 10
      vertex 5.46726 -5.1341 0
      vertex 4.78068 -5.77885 0
    endloop
  endfacet
  facet normal -0.770513 0.637424 0
    outer loop
      vertex 5.46726 -5.1341 0
      vertex 6.06763 -4.40839 10
      vertex 6.06763 -4.40839 0
    endloop
  endfacet
  facet normal -0.770513 0.637424 0
    outer loop
      vertex 6.06763 -4.40839 10
      vertex 5.46726 -5.1341 0
      vertex 5.46726 -5.1341 10
    endloop
  endfacet
  facet normal 0.684547 0.728969 -0
    outer loop
      vertex -4.78068 -5.77885 0
      vertex -5.46726 -5.1341 10
      vertex -4.78068 -5.77885 10
    endloop
  endfacet
  facet normal 0.684547 0.728969 0
    outer loop
      vertex -5.46726 -5.1341 10
      vertex -4.78068 -5.77885 0
      vertex -5.46726 -5.1341 0
    endloop
  endfacet
  facet normal -0.368124 0.929777 0
    outer loop
      vertex 3.19334 -6.7862 0
      vertex 2.31763 -7.13292 10
      vertex 3.19334 -6.7862 10
    endloop
  endfacet
  facet normal -0.368124 0.929777 0
    outer loop
      vertex 2.31763 -7.13292 10
      vertex 3.19334 -6.7862 0
      vertex 2.31763 -7.13292 0
    endloop
  endfacet
  facet normal -0.24869 0.968583 0
    outer loop
      vertex 2.31763 -7.13292 0
      vertex 1.40536 -7.36715 10
      vertex 2.31763 -7.13292 10
    endloop
  endfacet
  facet normal -0.24869 0.968583 0
    outer loop
      vertex 1.40536 -7.36715 10
      vertex 2.31763 -7.13292 0
      vertex 1.40536 -7.36715 0
    endloop
  endfacet
  facet normal -0.587785 0.809017 0
    outer loop
      vertex 4.78068 -5.77885 0
      vertex 4.0187 -6.33246 10
      vertex 4.78068 -5.77885 10
    endloop
  endfacet
  facet normal -0.587785 0.809017 0
    outer loop
      vertex 4.0187 -6.33246 10
      vertex 4.78068 -5.77885 0
      vertex 4.0187 -6.33246 0
    endloop
  endfacet
  facet normal -0.844328 0.535827 0
    outer loop
      vertex 6.06763 -4.40839 0
      vertex 6.5723 -3.61315 10
      vertex 6.5723 -3.61315 0
    endloop
  endfacet
  facet normal -0.844328 0.535827 0
    outer loop
      vertex 6.5723 -3.61315 10
      vertex 6.06763 -4.40839 0
      vertex 6.06763 -4.40839 10
    endloop
  endfacet
  facet normal 0.368124 0.929777 -0
    outer loop
      vertex -2.31763 -7.13292 0
      vertex -3.19334 -6.7862 10
      vertex -2.31763 -7.13292 10
    endloop
  endfacet
  facet normal 0.368124 0.929777 0
    outer loop
      vertex -3.19334 -6.7862 10
      vertex -2.31763 -7.13292 0
      vertex -3.19334 -6.7862 0
    endloop
  endfacet
  facet normal 0.24869 0.968583 -0
    outer loop
      vertex -1.40536 -7.36715 0
      vertex -2.31763 -7.13292 10
      vertex -1.40536 -7.36715 10
    endloop
  endfacet
  facet normal 0.24869 0.968583 0
    outer loop
      vertex -2.31763 -7.13292 10
      vertex -1.40536 -7.36715 0
      vertex -2.31763 -7.13292 0
    endloop
  endfacet
  facet normal 0.125333 0.992115 -0
    outer loop
      vertex -0.470928 -7.4852 0
      vertex -1.40536 -7.36715 10
      vertex -0.470928 -7.4852 10
    endloop
  endfacet
  facet normal 0.125333 0.992115 0
    outer loop
      vertex -1.40536 -7.36715 10
      vertex -0.470928 -7.4852 0
      vertex -1.40536 -7.36715 0
    endloop
  endfacet
  facet normal 0.951057 0.309017 0
    outer loop
      vertex -6.97332 -2.76093 10
      vertex -7.26437 -1.86517 0
      vertex -7.26437 -1.86517 10
    endloop
  endfacet
  facet normal 0.951057 0.309017 0
    outer loop
      vertex -7.26437 -1.86517 0
      vertex -6.97332 -2.76093 10
      vertex -6.97332 -2.76093 0
    endloop
  endfacet
  facet normal 0.982287 0.187382 0
    outer loop
      vertex -7.26437 -1.86517 10
      vertex -7.44086 -0.939999 0
      vertex -7.44086 -0.939999 10
    endloop
  endfacet
  facet normal 0.982287 0.187382 0
    outer loop
      vertex -7.44086 -0.939999 0
      vertex -7.26437 -1.86517 10
      vertex -7.26437 -1.86517 0
    endloop
  endfacet
  facet normal 0.904827 0.425779 0
    outer loop
      vertex -6.5723 -3.61315 10
      vertex -6.97332 -2.76093 0
      vertex -6.97332 -2.76093 10
    endloop
  endfacet
  facet normal 0.904827 0.425779 0
    outer loop
      vertex -6.97332 -2.76093 0
      vertex -6.5723 -3.61315 10
      vertex -6.5723 -3.61315 0
    endloop
  endfacet
  facet normal 0.587785 0.809017 -0
    outer loop
      vertex -4.0187 -6.33246 0
      vertex -4.78068 -5.77885 10
      vertex -4.0187 -6.33246 10
    endloop
  endfacet
  facet normal 0.587785 0.809017 0
    outer loop
      vertex -4.78068 -5.77885 10
      vertex -4.0187 -6.33246 0
      vertex -4.78068 -5.77885 0
    endloop
  endfacet
  facet normal 0.770513 0.637424 0
    outer loop
      vertex -5.46726 -5.1341 10
      vertex -6.06763 -4.40839 0
      vertex -6.06763 -4.40839 10
    endloop
  endfacet
  facet normal 0.770513 0.637424 0
    outer loop
      vertex -6.06763 -4.40839 0
      vertex -5.46726 -5.1341 10
      vertex -5.46726 -5.1341 0
    endloop
  endfacet
  facet normal 0.481754 0.876307 -0
    outer loop
      vertex -3.19334 -6.7862 0
      vertex -4.0187 -6.33246 10
      vertex -3.19334 -6.7862 10
    endloop
  endfacet
  facet normal 0.481754 0.876307 0
    outer loop
      vertex -4.0187 -6.33246 10
      vertex -3.19334 -6.7862 0
      vertex -4.0187 -6.33246 0
    endloop
  endfacet
  facet normal -1 0 0
    outer loop
      vertex 7.5 13.9564 0
      vertex 7.5 22 10
      vertex 7.5 22 0
    endloop
  endfacet
  facet normal -1 -0 0
    outer loop
      vertex 7.5 22 10
      vertex 7.5 13.9564 0
      vertex 7.5 13.9564 10
    endloop
  endfacet
  facet normal 0 1 0
    outer loop
      vertex 17.5 22 10
      vertex 12.1942 22 6.49704
      vertex 7.5 22 10
    endloop
  endfacet
  facet normal 0 1 0
    outer loop
      vertex 17.5 22 10
      vertex 12.5635 22 6.42658
      vertex 12.1942 22 6.49704
    endloop
  endfacet
  facet normal 0 1 0
    outer loop
      vertex 17.5 22 10
      vertex 12.9037 22 6.26649
      vertex 12.5635 22 6.42658
    endloop
  endfacet
  facet normal 0 1 0
    outer loop
      vertex 17.5 22 10
      vertex 13.1935 22 6.02682
      vertex 12.9037 22 6.26649
    endloop
  endfacet
  facet normal 0 1 0
    outer loop
      vertex 17.5 22 10
      vertex 13.4145 22 5.72263
      vertex 13.1935 22 6.02682
    endloop
  endfacet
  facet normal 0 1 0
    outer loop
      vertex 17.5 22 10
      vertex 13.5529 22 5.37303
      vertex 13.4145 22 5.72263
    endloop
  endfacet
  facet normal 0 1 0
    outer loop
      vertex 17.5 22 10
      vertex 13.6 22 5
      vertex 13.5529 22 5.37303
    endloop
  endfacet
  facet normal 0 1 -0
    outer loop
      vertex 17.5 22 0
      vertex 13.6 22 5
      vertex 17.5 22 10
    endloop
  endfacet
  facet normal 0 1 0
    outer loop
      vertex 13.6 22 5
      vertex 17.5 22 0
      vertex 13.5529 22 4.62696
    endloop
  endfacet
  facet normal 0 1 0
    outer loop
      vertex 12.5635 22 3.57341
      vertex 17.5 22 0
      vertex 12.1942 22 3.50296
    endloop
  endfacet
  facet normal 0 1 0
    outer loop
      vertex 12.9037 22 3.73351
      vertex 17.5 22 0
      vertex 12.5635 22 3.57341
    endloop
  endfacet
  facet normal 0 1 0
    outer loop
      vertex 13.1935 22 3.97318
      vertex 17.5 22 0
      vertex 12.9037 22 3.73351
    endloop
  endfacet
  facet normal 0 1 0
    outer loop
      vertex 13.4145 22 4.27737
      vertex 17.5 22 0
      vertex 13.1935 22 3.97318
    endloop
  endfacet
  facet normal 0 1 0
    outer loop
      vertex 13.5529 22 4.62696
      vertex 17.5 22 0
      vertex 13.4145 22 4.27737
    endloop
  endfacet
  facet normal 0 1 -0
    outer loop
      vertex 11.8189 22 6.47343
      vertex 7.5 22 10
      vertex 12.1942 22 6.49704
    endloop
  endfacet
  facet normal 0 1 -0
    outer loop
      vertex 11.4613 22 6.35724
      vertex 7.5 22 10
      vertex 11.8189 22 6.47343
    endloop
  endfacet
  facet normal 0 1 -0
    outer loop
      vertex 11.1439 22 6.15577
      vertex 7.5 22 10
      vertex 11.4613 22 6.35724
    endloop
  endfacet
  facet normal 0 1 -0
    outer loop
      vertex 10.8865 22 5.88168
      vertex 7.5 22 10
      vertex 11.1439 22 6.15577
    endloop
  endfacet
  facet normal 0 1 -0
    outer loop
      vertex 10.7053 22 5.55219
      vertex 7.5 22 10
      vertex 10.8865 22 5.88168
    endloop
  endfacet
  facet normal 0 1 -0
    outer loop
      vertex 10.6118 22 5.188
      vertex 7.5 22 10
      vertex 10.7053 22 5.55219
    endloop
  endfacet
  facet normal 0 1 -0
    outer loop
      vertex 10.6118 22 4.812
      vertex 7.5 22 10
      vertex 10.6118 22 5.188
    endloop
  endfacet
  facet normal 0 1 0
    outer loop
      vertex 7.5 22 0
      vertex 10.6118 22 4.812
      vertex 10.7053 22 4.44781
    endloop
  endfacet
  facet normal 0 1 0
    outer loop
      vertex 7.5 22 0
      vertex 10.7053 22 4.44781
      vertex 10.8865 22 4.11832
    endloop
  endfacet
  facet normal 0 1 0
    outer loop
      vertex 7.5 22 0
      vertex 12.1942 22 3.50296
      vertex 17.5 22 0
    endloop
  endfacet
  facet normal 0 1 0
    outer loop
      vertex 12.1942 22 3.50296
      vertex 7.5 22 0
      vertex 11.8189 22 3.52657
    endloop
  endfacet
  facet normal 0 1 0
    outer loop
      vertex 10.6118 22 4.812
      vertex 7.5 22 0
      vertex 7.5 22 10
    endloop
  endfacet
  facet normal 0 1 0
    outer loop
      vertex 11.1439 22 3.84423
      vertex 7.5 22 0
      vertex 10.8865 22 4.11832
    endloop
  endfacet
  facet normal 0 1 0
    outer loop
      vertex 11.4613 22 3.64276
      vertex 7.5 22 0
      vertex 11.1439 22 3.84423
    endloop
  endfacet
  facet normal 0 1 0
    outer loop
      vertex 11.8189 22 3.52657
      vertex 7.5 22 0
      vertex 11.4613 22 3.64276
    endloop
  endfacet
  facet normal 1 -0 0
    outer loop
      vertex 9 16 10
      vertex 9 20 5
      vertex 9 20 10
    endloop
  endfacet
  facet normal 1 0 0
    outer loop
      vertex 9 20 5
      vertex 9 16 10
      vertex 9 16 5
    endloop
  endfacet
  facet normal -1 0 0
    outer loop
      vertex 15 16 5
      vertex 15 20 10
      vertex 15 20 5
    endloop
  endfacet
  facet normal -1 -0 0
    outer loop
      vertex 15 20 10
      vertex 15 16 5
      vertex 15 16 10
    endloop
  endfacet
  facet normal 0 1 0
    outer loop
      vertex 15 16 10
      vertex 12.1942 16 6.49704
      vertex 9 16 10
    endloop
  endfacet
  facet normal 0 1 0
    outer loop
      vertex 15 16 10
      vertex 12.5635 16 6.42658
      vertex 12.1942 16 6.49704
    endloop
  endfacet
  facet normal 0 1 0
    outer loop
      vertex 15 16 10
      vertex 12.9037 16 6.26649
      vertex 12.5635 16 6.42658
    endloop
  endfacet
  facet normal 0 1 0
    outer loop
      vertex 15 16 10
      vertex 13.1935 16 6.02682
      vertex 12.9037 16 6.26649
    endloop
  endfacet
  facet normal 0 1 -0
    outer loop
      vertex 15 16 5
      vertex 13.1935 16 6.02682
      vertex 15 16 10
    endloop
  endfacet
  facet normal 0 1 0
    outer loop
      vertex 13.1935 16 6.02682
      vertex 15 16 5
      vertex 13.4145 16 5.72263
    endloop
  endfacet
  facet normal 0 1 0
    outer loop
      vertex 13.4145 16 5.72263
      vertex 15 16 5
      vertex 13.5529 16 5.37303
    endloop
  endfacet
  facet normal 0 1 0
    outer loop
      vertex 15 16 5
      vertex 13.6 16 5
      vertex 13.5529 16 5.37303
    endloop
  endfacet
  facet normal 0 1 0
    outer loop
      vertex 15 16 5
      vertex 13.5529 16 4.62696
      vertex 13.6 16 5
    endloop
  endfacet
  facet normal 0 1 0
    outer loop
      vertex 15 16 5
      vertex 13.4145 16 4.27737
      vertex 13.5529 16 4.62696
    endloop
  endfacet
  facet normal 0 1 -0
    outer loop
      vertex 13.5 16 2.40192
      vertex 13.4145 16 4.27737
      vertex 15 16 5
    endloop
  endfacet
  facet normal 0 1 0
    outer loop
      vertex 13.4145 16 4.27737
      vertex 13.5 16 2.40192
      vertex 13.1935 16 3.97318
    endloop
  endfacet
  facet normal 0 1 0
    outer loop
      vertex 12.5635 16 3.57341
      vertex 13.5 16 2.40192
      vertex 12.1942 16 3.50296
    endloop
  endfacet
  facet normal 0 1 0
    outer loop
      vertex 12.9037 16 3.73351
      vertex 13.5 16 2.40192
      vertex 12.5635 16 3.57341
    endloop
  endfacet
  facet normal 0 1 0
    outer loop
      vertex 13.1935 16 3.97318
      vertex 13.5 16 2.40192
      vertex 12.9037 16 3.73351
    endloop
  endfacet
  facet normal 0 1 -0
    outer loop
      vertex 11.8189 16 6.47343
      vertex 9 16 10
      vertex 12.1942 16 6.49704
    endloop
  endfacet
  facet normal 0 1 -0
    outer loop
      vertex 11.4613 16 6.35724
      vertex 9 16 10
      vertex 11.8189 16 6.47343
    endloop
  endfacet
  facet normal 0 1 -0
    outer loop
      vertex 11.1439 16 6.15577
      vertex 9 16 10
      vertex 11.4613 16 6.35724
    endloop
  endfacet
  facet normal 0 1 -0
    outer loop
      vertex 10.8865 16 5.88168
      vertex 9 16 10
      vertex 11.1439 16 6.15577
    endloop
  endfacet
  facet normal 0 1 0
    outer loop
      vertex 9 16 5
      vertex 10.8865 16 5.88168
      vertex 10.7053 16 5.55219
    endloop
  endfacet
  facet normal 0 1 0
    outer loop
      vertex 9 16 5
      vertex 10.7053 16 5.55219
      vertex 10.6118 16 5.188
    endloop
  endfacet
  facet normal 0 1 0
    outer loop
      vertex 10.8865 16 5.88168
      vertex 9 16 5
      vertex 9 16 10
    endloop
  endfacet
  facet normal 0 1 -0
    outer loop
      vertex 10.6118 16 4.812
      vertex 9 16 5
      vertex 10.6118 16 5.188
    endloop
  endfacet
  facet normal 0 1 0
    outer loop
      vertex 10.7053 16 4.44781
      vertex 9 16 5
      vertex 10.6118 16 4.812
    endloop
  endfacet
  facet normal 0 1 0
    outer loop
      vertex 10.8865 16 4.11832
      vertex 9 16 5
      vertex 10.7053 16 4.44781
    endloop
  endfacet
  facet normal 0 1 0
    outer loop
      vertex 10.5 16 2.40192
      vertex 10.8865 16 4.11832
      vertex 11.1439 16 3.84423
    endloop
  endfacet
  facet normal 0 1 0
    outer loop
      vertex 10.5 16 2.40192
      vertex 11.1439 16 3.84423
      vertex 11.4613 16 3.64276
    endloop
  endfacet
  facet normal 0 1 0
    outer loop
      vertex 10.5 16 2.40192
      vertex 12.1942 16 3.50296
      vertex 13.5 16 2.40192
    endloop
  endfacet
  facet normal 0 1 0
    outer loop
      vertex 12.1942 16 3.50296
      vertex 10.5 16 2.40192
      vertex 11.8189 16 3.52657
    endloop
  endfacet
  facet normal 0 1 0
    outer loop
      vertex 11.8189 16 3.52657
      vertex 10.5 16 2.40192
      vertex 11.4613 16 3.64276
    endloop
  endfacet
  facet normal 0 1 0
    outer loop
      vertex 10.8865 16 4.11832
      vertex 10.5 16 2.40192
      vertex 9 16 5
    endloop
  endfacet
  facet normal 0 -1 0
    outer loop
      vertex 9 20 10
      vertex 12.1942 20 6.49704
      vertex 15 20 10
    endloop
  endfacet
  facet normal 0 -1 0
    outer loop
      vertex 9 20 10
      vertex 11.8189 20 6.47343
      vertex 12.1942 20 6.49704
    endloop
  endfacet
  facet normal 0 -1 0
    outer loop
      vertex 9 20 10
      vertex 11.4613 20 6.35724
      vertex 11.8189 20 6.47343
    endloop
  endfacet
  facet normal 0 -1 0
    outer loop
      vertex 9 20 10
      vertex 11.1439 20 6.15577
      vertex 11.4613 20 6.35724
    endloop
  endfacet
  facet normal 0 -1 0
    outer loop
      vertex 9 20 10
      vertex 10.8865 20 5.88168
      vertex 11.1439 20 6.15577
    endloop
  endfacet
  facet normal 0 -1 0
    outer loop
      vertex 9 20 5
      vertex 10.8865 20 5.88168
      vertex 9 20 10
    endloop
  endfacet
  facet normal 0 -1 0
    outer loop
      vertex 10.8865 20 5.88168
      vertex 9 20 5
      vertex 10.7053 20 5.55219
    endloop
  endfacet
  facet normal 0 -1 0
    outer loop
      vertex 10.7053 20 5.55219
      vertex 9 20 5
      vertex 10.6118 20 5.188
    endloop
  endfacet
  facet normal 0 -1 0
    outer loop
      vertex 9 20 5
      vertex 10.6118 20 4.812
      vertex 10.6118 20 5.188
    endloop
  endfacet
  facet normal 0 -1 0
    outer loop
      vertex 9 20 5
      vertex 10.7053 20 4.44781
      vertex 10.6118 20 4.812
    endloop
  endfacet
  facet normal 0 -1 0
    outer loop
      vertex 9 20 5
      vertex 10.8865 20 4.11832
      vertex 10.7053 20 4.44781
    endloop
  endfacet
  facet normal 0 -1 0
    outer loop
      vertex 10.5 20 2.40192
      vertex 10.8865 20 4.11832
      vertex 9 20 5
    endloop
  endfacet
  facet normal 0 -1 -0
    outer loop
      vertex 10.8865 20 4.11832
      vertex 10.5 20 2.40192
      vertex 11.1439 20 3.84423
    endloop
  endfacet
  facet normal 0 -1 -0
    outer loop
      vertex 11.8189 20 3.52657
      vertex 10.5 20 2.40192
      vertex 12.1942 20 3.50296
    endloop
  endfacet
  facet normal 0 -1 -0
    outer loop
      vertex 11.4613 20 3.64276
      vertex 10.5 20 2.40192
      vertex 11.8189 20 3.52657
    endloop
  endfacet
  facet normal 0 -1 -0
    outer loop
      vertex 11.1439 20 3.84423
      vertex 10.5 20 2.40192
      vertex 11.4613 20 3.64276
    endloop
  endfacet
  facet normal 0 -1 0
    outer loop
      vertex 12.5635 20 6.42658
      vertex 15 20 10
      vertex 12.1942 20 6.49704
    endloop
  endfacet
  facet normal 0 -1 0
    outer loop
      vertex 12.9037 20 6.26649
      vertex 15 20 10
      vertex 12.5635 20 6.42658
    endloop
  endfacet
  facet normal 0 -1 0
    outer loop
      vertex 13.1935 20 6.02682
      vertex 15 20 10
      vertex 12.9037 20 6.26649
    endloop
  endfacet
  facet normal 0 -1 0
    outer loop
      vertex 15 20 5
      vertex 13.1935 20 6.02682
      vertex 13.4145 20 5.72263
    endloop
  endfacet
  facet normal 0 -1 0
    outer loop
      vertex 15 20 5
      vertex 13.4145 20 5.72263
      vertex 13.5529 20 5.37303
    endloop
  endfacet
  facet normal 0 -1 0
    outer loop
      vertex 15 20 5
      vertex 13.5529 20 5.37303
      vertex 13.6 20 5
    endloop
  endfacet
  facet normal 0 -1 0
    outer loop
      vertex 13.1935 20 6.02682
      vertex 15 20 5
      vertex 15 20 10
    endloop
  endfacet
  facet normal 0 -1 0
    outer loop
      vertex 13.5529 20 4.62696
      vertex 15 20 5
      vertex 13.6 20 5
    endloop
  endfacet
  facet normal 0 -1 0
    outer loop
      vertex 13.4145 20 4.27737
      vertex 15 20 5
      vertex 13.5529 20 4.62696
    endloop
  endfacet
  facet normal 0 -1 0
    outer loop
      vertex 13.5 20 2.40192
      vertex 13.4145 20 4.27737
      vertex 13.1935 20 3.97318
    endloop
  endfacet
  facet normal 0 -1 0
    outer loop
      vertex 13.5 20 2.40192
      vertex 13.1935 20 3.97318
      vertex 12.9037 20 3.73351
    endloop
  endfacet
  facet normal 0 -1 0
    outer loop
      vertex 13.5 20 2.40192
      vertex 12.1942 20 3.50296
      vertex 10.5 20 2.40192
    endloop
  endfacet
  facet normal 0 -1 0
    outer loop
      vertex 12.1942 20 3.50296
      vertex 13.5 20 2.40192
      vertex 12.5635 20 3.57341
    endloop
  endfacet
  facet normal 0 -1 0
    outer loop
      vertex 13.4145 20 4.27737
      vertex 13.5 20 2.40192
      vertex 15 20 5
    endloop
  endfacet
  facet normal 0 -1 0
    outer loop
      vertex 12.5635 20 3.57341
      vertex 13.5 20 2.40192
      vertex 12.9037 20 3.73351
    endloop
  endfacet
  facet normal -0 0 1
    outer loop
      vertex 10.5 20 2.40192
      vertex 13.5 16 2.40192
      vertex 13.5 20 2.40192
    endloop
  endfacet
  facet normal 0 0 1
    outer loop
      vertex 13.5 16 2.40192
      vertex 10.5 20 2.40192
      vertex 10.5 16 2.40192
    endloop
  endfacet
  facet normal -0.866025 0 0.5
    outer loop
      vertex 13.5 16 2.40192
      vertex 15 20 5
      vertex 13.5 20 2.40192
    endloop
  endfacet
  facet normal -0.866025 0 0.5
    outer loop
      vertex 15 20 5
      vertex 13.5 16 2.40192
      vertex 15 16 5
    endloop
  endfacet
  facet normal 0.866026 -0 0.5
    outer loop
      vertex 9 16 5
      vertex 10.5 20 2.40192
      vertex 9 20 5
    endloop
  endfacet
  facet normal 0.866026 0 0.5
    outer loop
      vertex 10.5 20 2.40192
      vertex 9 16 5
      vertex 10.5 16 2.40192
    endloop
  endfacet
  facet normal -0.992115 0 -0.125332
    outer loop
      vertex 13.6 20 5
      vertex 13.5529 22 5.37303
      vertex 13.6 22 5
    endloop
  endfacet
  facet normal -0.992115 -0 -0.125332
    outer loop
      vertex 13.5529 22 5.37303
      vertex 13.6 20 5
      vertex 13.5529 20 5.37303
    endloop
  endfacet
  facet normal -0.992115 0 -0.125332
    outer loop
      vertex 13.6 11 5
      vertex 13.5529 16 5.37303
      vertex 13.6 16 5
    endloop
  endfacet
  facet normal -0.992115 -0 -0.125332
    outer loop
      vertex 13.5529 16 5.37303
      vertex 13.6 11 5
      vertex 13.5529 11 5.37303
    endloop
  endfacet
  facet normal -0.929776 0 -0.368126
    outer loop
      vertex 13.5529 20 5.37303
      vertex 13.4145 22 5.72263
      vertex 13.5529 22 5.37303
    endloop
  endfacet
  facet normal -0.929776 -0 -0.368126
    outer loop
      vertex 13.4145 22 5.72263
      vertex 13.5529 20 5.37303
      vertex 13.4145 20 5.72263
    endloop
  endfacet
  facet normal -0.929776 0 -0.368126
    outer loop
      vertex 13.5529 11 5.37303
      vertex 13.4145 16 5.72263
      vertex 13.5529 16 5.37303
    endloop
  endfacet
  facet normal -0.929776 -0 -0.368126
    outer loop
      vertex 13.4145 16 5.72263
      vertex 13.5529 11 5.37303
      vertex 13.4145 11 5.72263
    endloop
  endfacet
  facet normal 1 -0 0
    outer loop
      vertex 10.6118 20 5.188
      vertex 10.6118 22 4.812
      vertex 10.6118 22 5.188
    endloop
  endfacet
  facet normal 1 0 0
    outer loop
      vertex 10.6118 22 4.812
      vertex 10.6118 20 5.188
      vertex 10.6118 20 4.812
    endloop
  endfacet
  facet normal 1 -0 0
    outer loop
      vertex 10.6118 11 5.188
      vertex 10.6118 16 4.812
      vertex 10.6118 16 5.188
    endloop
  endfacet
  facet normal 1 0 0
    outer loop
      vertex 10.6118 16 4.812
      vertex 10.6118 11 5.188
      vertex 10.6118 11 4.812
    endloop
  endfacet
  facet normal 0.0627904 0 -0.998027
    outer loop
      vertex 11.8189 20 6.47343
      vertex 12.1942 22 6.49704
      vertex 12.1942 20 6.49704
    endloop
  endfacet
  facet normal 0.0627904 0 -0.998027
    outer loop
      vertex 12.1942 22 6.49704
      vertex 11.8189 20 6.47343
      vertex 11.8189 22 6.47343
    endloop
  endfacet
  facet normal 0.0627904 0 -0.998027
    outer loop
      vertex 11.8189 11 6.47343
      vertex 12.1942 16 6.49704
      vertex 12.1942 11 6.49704
    endloop
  endfacet
  facet normal 0.0627904 0 -0.998027
    outer loop
      vertex 12.1942 16 6.49704
      vertex 11.8189 11 6.47343
      vertex 11.8189 16 6.47343
    endloop
  endfacet
  facet normal -0.637423 0 -0.770514
    outer loop
      vertex 12.9037 20 6.26649
      vertex 13.1935 22 6.02682
      vertex 13.1935 20 6.02682
    endloop
  endfacet
  facet normal -0.637423 0 -0.770514
    outer loop
      vertex 13.1935 22 6.02682
      vertex 12.9037 20 6.26649
      vertex 12.9037 22 6.26649
    endloop
  endfacet
  facet normal -0.637423 0 -0.770514
    outer loop
      vertex 12.9037 11 6.26649
      vertex 13.1935 16 6.02682
      vertex 13.1935 11 6.02682
    endloop
  endfacet
  facet normal -0.637423 0 -0.770514
    outer loop
      vertex 13.1935 16 6.02682
      vertex 12.9037 11 6.26649
      vertex 12.9037 16 6.26649
    endloop
  endfacet
  facet normal 0.728968 0 -0.684548
    outer loop
      vertex 11.1439 20 6.15577
      vertex 10.8865 22 5.88168
      vertex 11.1439 22 6.15577
    endloop
  endfacet
  facet normal 0.728968 0 -0.684548
    outer loop
      vertex 10.8865 22 5.88168
      vertex 11.1439 20 6.15577
      vertex 10.8865 20 5.88168
    endloop
  endfacet
  facet normal 0.728968 0 -0.684548
    outer loop
      vertex 11.1439 11 6.15577
      vertex 10.8865 16 5.88168
      vertex 11.1439 16 6.15577
    endloop
  endfacet
  facet normal 0.728968 0 -0.684548
    outer loop
      vertex 10.8865 16 5.88168
      vertex 11.1439 11 6.15577
      vertex 10.8865 11 5.88168
    endloop
  endfacet
  facet normal 0.535827 0 -0.844328
    outer loop
      vertex 11.1439 20 6.15577
      vertex 11.4613 22 6.35724
      vertex 11.4613 20 6.35724
    endloop
  endfacet
  facet normal 0.535827 0 -0.844328
    outer loop
      vertex 11.4613 22 6.35724
      vertex 11.1439 20 6.15577
      vertex 11.1439 22 6.15577
    endloop
  endfacet
  facet normal 0.535827 0 -0.844328
    outer loop
      vertex 11.1439 11 6.15577
      vertex 11.4613 16 6.35724
      vertex 11.4613 11 6.35724
    endloop
  endfacet
  facet normal 0.535827 0 -0.844328
    outer loop
      vertex 11.4613 16 6.35724
      vertex 11.1439 11 6.15577
      vertex 11.1439 16 6.15577
    endloop
  endfacet
  facet normal -0.187382 0 0.982287
    outer loop
      vertex 12.1942 22 3.50296
      vertex 12.5635 20 3.57341
      vertex 12.5635 22 3.57341
    endloop
  endfacet
  facet normal -0.187382 0 0.982287
    outer loop
      vertex 12.5635 20 3.57341
      vertex 12.1942 22 3.50296
      vertex 12.1942 20 3.50296
    endloop
  endfacet
  facet normal -0.187382 0 0.982287
    outer loop
      vertex 12.1942 16 3.50296
      vertex 12.5635 11 3.57341
      vertex 12.5635 16 3.57341
    endloop
  endfacet
  facet normal -0.187382 0 0.982287
    outer loop
      vertex 12.5635 11 3.57341
      vertex 12.1942 16 3.50296
      vertex 12.1942 11 3.50296
    endloop
  endfacet
  facet normal -0.809017 0 0.587785
    outer loop
      vertex 13.1935 20 3.97318
      vertex 13.4145 22 4.27737
      vertex 13.1935 22 3.97318
    endloop
  endfacet
  facet normal -0.809017 0 0.587785
    outer loop
      vertex 13.4145 22 4.27737
      vertex 13.1935 20 3.97318
      vertex 13.4145 20 4.27737
    endloop
  endfacet
  facet normal -0.809017 0 0.587785
    outer loop
      vertex 13.1935 11 3.97318
      vertex 13.4145 16 4.27737
      vertex 13.1935 16 3.97318
    endloop
  endfacet
  facet normal -0.809017 0 0.587785
    outer loop
      vertex 13.4145 16 4.27737
      vertex 13.1935 11 3.97318
      vertex 13.4145 11 4.27737
    endloop
  endfacet
  facet normal -0.809017 0 -0.587785
    outer loop
      vertex 13.4145 20 5.72263
      vertex 13.1935 22 6.02682
      vertex 13.4145 22 5.72263
    endloop
  endfacet
  facet normal -0.809017 -0 -0.587785
    outer loop
      vertex 13.1935 22 6.02682
      vertex 13.4145 20 5.72263
      vertex 13.1935 20 6.02682
    endloop
  endfacet
  facet normal -0.809017 0 -0.587785
    outer loop
      vertex 13.4145 11 5.72263
      vertex 13.1935 16 6.02682
      vertex 13.4145 16 5.72263
    endloop
  endfacet
  facet normal -0.809017 -0 -0.587785
    outer loop
      vertex 13.1935 16 6.02682
      vertex 13.4145 11 5.72263
      vertex 13.1935 11 6.02682
    endloop
  endfacet
  facet normal -0.42578 0 -0.904827
    outer loop
      vertex 12.5635 20 6.42658
      vertex 12.9037 22 6.26649
      vertex 12.9037 20 6.26649
    endloop
  endfacet
  facet normal -0.42578 0 -0.904827
    outer loop
      vertex 12.9037 22 6.26649
      vertex 12.5635 20 6.42658
      vertex 12.5635 22 6.42658
    endloop
  endfacet
  facet normal -0.42578 0 -0.904827
    outer loop
      vertex 12.5635 11 6.42658
      vertex 12.9037 16 6.26649
      vertex 12.9037 11 6.26649
    endloop
  endfacet
  facet normal -0.42578 0 -0.904827
    outer loop
      vertex 12.9037 16 6.26649
      vertex 12.5635 11 6.42658
      vertex 12.5635 16 6.42658
    endloop
  endfacet
  facet normal 0.876307 0 -0.481753
    outer loop
      vertex 10.8865 20 5.88168
      vertex 10.7053 22 5.55219
      vertex 10.8865 22 5.88168
    endloop
  endfacet
  facet normal 0.876307 0 -0.481753
    outer loop
      vertex 10.7053 22 5.55219
      vertex 10.8865 20 5.88168
      vertex 10.7053 20 5.55219
    endloop
  endfacet
  facet normal 0.876307 0 -0.481753
    outer loop
      vertex 10.8865 11 5.88168
      vertex 10.7053 16 5.55219
      vertex 10.8865 16 5.88168
    endloop
  endfacet
  facet normal 0.876307 0 -0.481753
    outer loop
      vertex 10.7053 16 5.55219
      vertex 10.8865 11 5.88168
      vertex 10.7053 11 5.55219
    endloop
  endfacet
  facet normal 0.309018 0 -0.951056
    outer loop
      vertex 11.4613 20 6.35724
      vertex 11.8189 22 6.47343
      vertex 11.8189 20 6.47343
    endloop
  endfacet
  facet normal 0.309018 0 -0.951056
    outer loop
      vertex 11.8189 22 6.47343
      vertex 11.4613 20 6.35724
      vertex 11.4613 22 6.35724
    endloop
  endfacet
  facet normal 0.309018 0 -0.951056
    outer loop
      vertex 11.4613 11 6.35724
      vertex 11.8189 16 6.47343
      vertex 11.8189 11 6.47343
    endloop
  endfacet
  facet normal 0.309018 0 -0.951056
    outer loop
      vertex 11.8189 16 6.47343
      vertex 11.4613 11 6.35724
      vertex 11.4613 16 6.35724
    endloop
  endfacet
  facet normal 0.535827 0 0.844328
    outer loop
      vertex 11.1439 22 3.84423
      vertex 11.4613 20 3.64276
      vertex 11.4613 22 3.64276
    endloop
  endfacet
  facet normal 0.535827 0 0.844328
    outer loop
      vertex 11.4613 20 3.64276
      vertex 11.1439 22 3.84423
      vertex 11.1439 20 3.84423
    endloop
  endfacet
  facet normal 0.535827 0 0.844328
    outer loop
      vertex 11.1439 16 3.84423
      vertex 11.4613 11 3.64276
      vertex 11.4613 16 3.64276
    endloop
  endfacet
  facet normal 0.535827 0 0.844328
    outer loop
      vertex 11.4613 11 3.64276
      vertex 11.1439 16 3.84423
      vertex 11.1439 11 3.84423
    endloop
  endfacet
  facet normal 0.0627904 0 0.998027
    outer loop
      vertex 11.8189 22 3.52657
      vertex 12.1942 20 3.50296
      vertex 12.1942 22 3.50296
    endloop
  endfacet
  facet normal 0.0627904 0 0.998027
    outer loop
      vertex 12.1942 20 3.50296
      vertex 11.8189 22 3.52657
      vertex 11.8189 20 3.52657
    endloop
  endfacet
  facet normal 0.0627904 0 0.998027
    outer loop
      vertex 11.8189 16 3.52657
      vertex 12.1942 11 3.50296
      vertex 12.1942 16 3.50296
    endloop
  endfacet
  facet normal 0.0627904 0 0.998027
    outer loop
      vertex 12.1942 11 3.50296
      vertex 11.8189 16 3.52657
      vertex 11.8189 11 3.52657
    endloop
  endfacet
  facet normal 0.728968 -0 0.684548
    outer loop
      vertex 10.8865 20 4.11832
      vertex 11.1439 22 3.84423
      vertex 10.8865 22 4.11832
    endloop
  endfacet
  facet normal 0.728968 0 0.684548
    outer loop
      vertex 11.1439 22 3.84423
      vertex 10.8865 20 4.11832
      vertex 11.1439 20 3.84423
    endloop
  endfacet
  facet normal 0.728968 -0 0.684548
    outer loop
      vertex 10.8865 11 4.11832
      vertex 11.1439 16 3.84423
      vertex 10.8865 16 4.11832
    endloop
  endfacet
  facet normal 0.728968 0 0.684548
    outer loop
      vertex 11.1439 16 3.84423
      vertex 10.8865 11 4.11832
      vertex 11.1439 11 3.84423
    endloop
  endfacet
  facet normal 0.968583 -0 0.248689
    outer loop
      vertex 10.6118 20 4.812
      vertex 10.7053 22 4.44781
      vertex 10.6118 22 4.812
    endloop
  endfacet
  facet normal 0.968583 0 0.248689
    outer loop
      vertex 10.7053 22 4.44781
      vertex 10.6118 20 4.812
      vertex 10.7053 20 4.44781
    endloop
  endfacet
  facet normal 0.968583 -0 0.248689
    outer loop
      vertex 10.6118 11 4.812
      vertex 10.7053 16 4.44781
      vertex 10.6118 16 4.812
    endloop
  endfacet
  facet normal 0.968583 0 0.248689
    outer loop
      vertex 10.7053 16 4.44781
      vertex 10.6118 11 4.812
      vertex 10.7053 11 4.44781
    endloop
  endfacet
  facet normal -0.187382 0 -0.982287
    outer loop
      vertex 12.1942 20 6.49704
      vertex 12.5635 22 6.42658
      vertex 12.5635 20 6.42658
    endloop
  endfacet
  facet normal -0.187382 0 -0.982287
    outer loop
      vertex 12.5635 22 6.42658
      vertex 12.1942 20 6.49704
      vertex 12.1942 22 6.49704
    endloop
  endfacet
  facet normal -0.187382 0 -0.982287
    outer loop
      vertex 12.1942 11 6.49704
      vertex 12.5635 16 6.42658
      vertex 12.5635 11 6.42658
    endloop
  endfacet
  facet normal -0.187382 0 -0.982287
    outer loop
      vertex 12.5635 16 6.42658
      vertex 12.1942 11 6.49704
      vertex 12.1942 16 6.49704
    endloop
  endfacet
  facet normal 0.968583 0 -0.248689
    outer loop
      vertex 10.7053 20 5.55219
      vertex 10.6118 22 5.188
      vertex 10.7053 22 5.55219
    endloop
  endfacet
  facet normal 0.968583 0 -0.248689
    outer loop
      vertex 10.6118 22 5.188
      vertex 10.7053 20 5.55219
      vertex 10.6118 20 5.188
    endloop
  endfacet
  facet normal 0.968583 0 -0.248689
    outer loop
      vertex 10.7053 11 5.55219
      vertex 10.6118 16 5.188
      vertex 10.7053 16 5.55219
    endloop
  endfacet
  facet normal 0.968583 0 -0.248689
    outer loop
      vertex 10.6118 16 5.188
      vertex 10.7053 11 5.55219
      vertex 10.6118 11 5.188
    endloop
  endfacet
  facet normal -0.42578 0 0.904827
    outer loop
      vertex 12.5635 22 3.57341
      vertex 12.9037 20 3.73351
      vertex 12.9037 22 3.73351
    endloop
  endfacet
  facet normal -0.42578 0 0.904827
    outer loop
      vertex 12.9037 20 3.73351
      vertex 12.5635 22 3.57341
      vertex 12.5635 20 3.57341
    endloop
  endfacet
  facet normal -0.42578 0 0.904827
    outer loop
      vertex 12.5635 16 3.57341
      vertex 12.9037 11 3.73351
      vertex 12.9037 16 3.73351
    endloop
  endfacet
  facet normal -0.42578 0 0.904827
    outer loop
      vertex 12.9037 11 3.73351
      vertex 12.5635 16 3.57341
      vertex 12.5635 11 3.57341
    endloop
  endfacet
  facet normal -0.637423 0 0.770514
    outer loop
      vertex 12.9037 22 3.73351
      vertex 13.1935 20 3.97318
      vertex 13.1935 22 3.97318
    endloop
  endfacet
  facet normal -0.637423 0 0.770514
    outer loop
      vertex 13.1935 20 3.97318
      vertex 12.9037 22 3.73351
      vertex 12.9037 20 3.73351
    endloop
  endfacet
  facet normal -0.637423 0 0.770514
    outer loop
      vertex 12.9037 16 3.73351
      vertex 13.1935 11 3.97318
      vertex 13.1935 16 3.97318
    endloop
  endfacet
  facet normal -0.637423 0 0.770514
    outer loop
      vertex 13.1935 11 3.97318
      vertex 12.9037 16 3.73351
      vertex 12.9037 11 3.73351
    endloop
  endfacet
  facet normal -0.929776 0 0.368126
    outer loop
      vertex 13.4145 20 4.27737
      vertex 13.5529 22 4.62696
      vertex 13.4145 22 4.27737
    endloop
  endfacet
  facet normal -0.929776 0 0.368126
    outer loop
      vertex 13.5529 22 4.62696
      vertex 13.4145 20 4.27737
      vertex 13.5529 20 4.62696
    endloop
  endfacet
  facet normal -0.929776 0 0.368126
    outer loop
      vertex 13.4145 11 4.27737
      vertex 13.5529 16 4.62696
      vertex 13.4145 16 4.27737
    endloop
  endfacet
  facet normal -0.929776 0 0.368126
    outer loop
      vertex 13.5529 16 4.62696
      vertex 13.4145 11 4.27737
      vertex 13.5529 11 4.62696
    endloop
  endfacet
  facet normal -0.992115 0 0.125332
    outer loop
      vertex 13.5529 20 4.62696
      vertex 13.6 22 5
      vertex 13.5529 22 4.62696
    endloop
  endfacet
  facet normal -0.992115 0 0.125332
    outer loop
      vertex 13.6 22 5
      vertex 13.5529 20 4.62696
      vertex 13.6 20 5
    endloop
  endfacet
  facet normal -0.992115 0 0.125332
    outer loop
      vertex 13.5529 11 4.62696
      vertex 13.6 16 5
      vertex 13.5529 16 4.62696
    endloop
  endfacet
  facet normal -0.992115 0 0.125332
    outer loop
      vertex 13.6 16 5
      vertex 13.5529 11 4.62696
      vertex 13.6 11 5
    endloop
  endfacet
  facet normal 0.309018 0 0.951056
    outer loop
      vertex 11.4613 22 3.64276
      vertex 11.8189 20 3.52657
      vertex 11.8189 22 3.52657
    endloop
  endfacet
  facet normal 0.309018 0 0.951056
    outer loop
      vertex 11.8189 20 3.52657
      vertex 11.4613 22 3.64276
      vertex 11.4613 20 3.64276
    endloop
  endfacet
  facet normal 0.309018 0 0.951056
    outer loop
      vertex 11.4613 16 3.64276
      vertex 11.8189 11 3.52657
      vertex 11.8189 16 3.52657
    endloop
  endfacet
  facet normal 0.309018 0 0.951056
    outer loop
      vertex 11.8189 11 3.52657
      vertex 11.4613 16 3.64276
      vertex 11.4613 11 3.64276
    endloop
  endfacet
  facet normal 0.876307 -0 0.481753
    outer loop
      vertex 10.7053 20 4.44781
      vertex 10.8865 22 4.11832
      vertex 10.7053 22 4.44781
    endloop
  endfacet
  facet normal 0.876307 0 0.481753
    outer loop
      vertex 10.8865 22 4.11832
      vertex 10.7053 20 4.44781
      vertex 10.8865 20 4.11832
    endloop
  endfacet
  facet normal 0.876307 -0 0.481753
    outer loop
      vertex 10.7053 11 4.44781
      vertex 10.8865 16 4.11832
      vertex 10.7053 16 4.44781
    endloop
  endfacet
  facet normal 0.876307 0 0.481753
    outer loop
      vertex 10.8865 16 4.11832
      vertex 10.7053 11 4.44781
      vertex 10.8865 11 4.11832
    endloop
  endfacet
endsolid OpenSCAD_Model
